<svg width="32" height="32" viewBox="0 0 32 32" fill="none" xmlns="http://www.w3.org/2000/svg">
<path d="M16 0C11.7565 0 7.68687 1.68571 4.68629 4.68629C1.68571 7.68687 0 11.7565 0 16C0 20.2435 1.68571 24.3131 4.68629 27.3137C7.68687 30.3143 11.7565 32 16 32C20.2435 32 24.3131 30.3143 27.3137 27.3137C30.3143 24.3131 32 20.2435 32 16C32 11.7565 30.3143 7.68687 27.3137 4.68629C24.3131 1.68571 20.2435 0 16 0V0ZM23 15C23.2652 15 23.5196 15.1054 23.7071 15.2929C23.8946 15.4804 24 15.7348 24 16C24 16.2652 23.8946 16.5196 23.7071 16.7071C23.5196 16.8946 23.2652 17 23 17H11.414L15.708 21.292C15.801 21.385 15.8747 21.4954 15.925 21.6168C15.9754 21.7383 16.0013 21.8685 16.0013 22C16.0013 22.1315 15.9754 22.2617 15.925 22.3832C15.8747 22.5046 15.801 22.615 15.708 22.708C15.615 22.801 15.5046 22.8747 15.3832 22.925C15.2617 22.9754 15.1315 23.0013 15 23.0013C14.8685 23.0013 14.7383 22.9754 14.6168 22.925C14.4954 22.8747 14.385 22.801 14.292 22.708L8.292 16.708C8.19887 16.6151 8.12499 16.5048 8.07457 16.3833C8.02416 16.2618 7.99821 16.1315 7.99821 16C7.99821 15.8685 8.02416 15.7382 8.07457 15.6167C8.12499 15.4952 8.19887 15.3849 8.292 15.292L14.292 9.292C14.4798 9.10423 14.7344 8.99874 15 8.99874C15.2656 8.99874 15.5202 9.10423 15.708 9.292C15.8958 9.47977 16.0013 9.73445 16.0013 10C16.0013 10.2656 15.8958 10.5202 15.708 10.708L11.414 15H23Z" fill="#FB980D"/>
</svg>
