<svg width="27" height="20" viewBox="0 0 27 20" fill="none" xmlns="http://www.w3.org/2000/svg">
<g clip-path="url(#clip0_295_186)">
<path d="M6.02922 19.9015V9.65181L2.85047 6.74373L0 5.12994V18.0927C0 19.0936 0.810881 19.9015 1.80881 19.9015H6.02922Z" fill="#4285F4"/>
<path d="M20.5 19.9016H24.7204C25.7213 19.9016 26.5292 19.0906 26.5292 18.0927V5.13005L23.3006 6.97844L20.5 9.65181V19.9016Z" fill="#34A853"/>
<path d="M6.0302 9.65181L5.59766 5.64694L6.0302 1.81389L13.2652 7.24021L20.5002 1.81389L20.9841 5.44L20.5002 9.65181L13.2652 15.0781L6.0302 9.65181Z" fill="#EA4335"/>
<path d="M20.5 1.81388V9.65181L26.5292 5.12995V2.71824C26.5292 0.48145 23.9759 -0.79368 22.1883 0.547771L20.5 1.81388Z" fill="#FBBC04"/>
<path d="M0 5.12981L2.77295 7.2096L6.02922 9.65168V1.81375L4.34093 0.547635C2.55026 -0.79392 0 0.481314 0 2.718V5.12971V5.12981Z" fill="#C5221F"/>
</g>
<defs>
<clipPath id="clip0_295_186">
<rect width="26.5285" height="20" fill="white"/>
</clipPath>
</defs>
</svg>
