<svg width="13" height="13" fill="none" xmlns="http://www.w3.org/2000/svg"><path d="M12.874 5.227h-.524V5.2H6.5v2.6h3.674A3.898 3.898 0 0 1 2.6 6.5a3.9 3.9 0 0 1 3.9-3.9 3.88 3.88 0 0 1 2.587.988l1.839-1.839A6.47 6.47 0 0 0 6.5 0a6.5 6.5 0 1 0 6.374 5.227Z" fill="#FFC107"/><path d="M.75 3.475 2.885 5.04A3.898 3.898 0 0 1 6.5 2.6a3.88 3.88 0 0 1 2.587.988l1.839-1.839A6.47 6.47 0 0 0 6.5 0 6.496 6.496 0 0 0 .75 3.475Z" fill="#FF3D00"/><path d="M6.5 13a6.47 6.47 0 0 0 4.358-1.687L8.846 9.61a3.87 3.87 0 0 1-2.346.79 3.898 3.898 0 0 1-3.667-2.582L.713 9.45A6.495 6.495 0 0 0 6.5 13Z" fill="#4CAF50"/><path d="M12.874 5.227h-.524V5.2H6.5v2.6h3.674a3.913 3.913 0 0 1-1.329 1.81h.001l2.012 1.702C10.716 11.442 13 9.75 13 6.5a6.55 6.55 0 0 0-.126-1.273Z" fill="#1976D2"/></svg>