<svg width="15" height="15" fill="none" xmlns="http://www.w3.org/2000/svg"><path d="M12.78 12.78h-2.222V9.3c0-.83-.015-1.898-1.156-1.898-1.157 0-1.334.904-1.334 1.838v3.54H5.845V5.624H7.98v.978h.03a2.338 2.338 0 0 1 2.105-1.156c2.252 0 2.668 1.482 2.668 3.41l-.001 3.926ZM3.338 4.646a1.29 1.29 0 1 1 0-2.58 1.29 1.29 0 0 1 0 2.58ZM4.45 12.78H2.224V5.623h2.224v7.158Zm9.44-12.78H1.107A1.095 1.095 0 0 0 0 1.082v12.836A1.096 1.096 0 0 0 1.107 15h12.782A1.098 1.098 0 0 0 15 13.918V1.08a1.097 1.097 0 0 0-1.111-1.08" fill="#0A66C2"/></svg>