<svg width="207" height="200" fill="none" xmlns="http://www.w3.org/2000/svg"><path d="M88.904 200c43.351 0 78.494-2.189 78.494-4.89 0-2.701-35.143-4.89-78.494-4.89-43.352 0-78.495 2.189-78.495 4.89 0 2.701 35.143 4.89 78.495 4.89Z" fill="#FB980D"/><path opacity=".8" d="M88.904 200c43.351 0 78.494-2.189 78.494-4.89 0-2.701-35.143-4.89-78.494-4.89-43.352 0-78.495 2.189-78.495 4.89 0 2.701 35.143 4.89 78.495 4.89Z" fill="#fff"/><path d="M147.889 9.163H68.963c-5.45 0-9.867 4.417-9.867 9.866v166.626c0 5.449 4.418 9.866 9.867 9.866h78.926c5.449 0 9.866-4.417 9.866-9.866V19.029c0-5.45-4.417-9.866-9.866-9.866Z" fill="#263238"/><path d="M153.367 29.626H63.478v145.431h89.889V29.627Z" fill="#fff" stroke="#263238" stroke-width="1.337" stroke-miterlimit="10"/><path d="M122.202 88.516c7.609-7.61 7.609-19.946 0-27.555-7.609-7.609-19.946-7.609-27.555 0-7.609 7.61-7.609 19.946 0 27.555 7.609 7.609 19.946 7.609 27.555 0ZM134.006 165.912H82.851a.86.86 0 0 1-.62-.254.874.874 0 0 1-.193-.956.876.876 0 0 1 .813-.542h51.155a.875.875 0 0 1 .617 1.496.87.87 0 0 1-.617.256ZM135.671 105.175h-54.49a2.037 2.037 0 0 0-2.037 2.037v6.423c0 1.125.912 2.036 2.036 2.036h54.491a2.035 2.035 0 0 0 2.036-2.036v-6.423a2.036 2.036 0 0 0-2.036-2.037ZM135.671 124.807h-54.49a2.036 2.036 0 0 0-2.037 2.036v6.423c0 1.125.912 2.037 2.036 2.037h54.491a2.036 2.036 0 0 0 2.036-2.037v-6.423a2.035 2.035 0 0 0-2.036-2.036Z" fill="#FB980D"/><path d="m118.126 84.458-5.732-3.301V78.43a8.974 8.974 0 0 0 1.762-3.438c.197.07.405.106.614.107.711 0 1.163-2.204 1.239-3.778.828-1.752-.3-2.778-.3-2.778s.468-.467.777-2.34c.31-1.874-1.091-1.092-2.183-2.809-1.092-1.716-1.874-3.584-5.459-3.584a4.921 4.921 0 0 0-4.682 2.965c-.892.003-1.781.107-2.65.31-1.097.31-1.407 3.9-.473 5.306.419.769.642 1.628.65 2.503-.248-.304-.507-.385-.65.305-.309 1.56.94 3.743.94 3.743l.645-.183a9.134 9.134 0 0 0 1.833 3.671v2.727l-5.733 3.3a4.407 4.407 0 0 0-2.204 3.814v1.889a19.475 19.475 0 0 0 23.81 0v-1.889a4.39 4.39 0 0 0-2.204-3.813ZM86.562 132.693a.508.508 0 0 1-.35-.148.467.467 0 0 1-.157-.355.507.507 0 0 1 .075-.259l.914-1.463-1.782.056a.491.491 0 0 1-.198-.029.488.488 0 0 1-.168-.108.508.508 0 0 1 0-.675.47.47 0 0 1 .366-.142l1.757.066-.904-1.458a.504.504 0 0 1-.036-.458.462.462 0 0 1 .117-.161.502.502 0 0 1 .35-.147.45.45 0 0 1 .412.264l.868 1.569.859-1.559a.51.51 0 0 1 .441-.285.46.46 0 0 1 .34.153.506.506 0 0 1 .143.36.51.51 0 0 1-.066.249l-.92 1.473 1.783-.066a.449.449 0 0 1 .365.142c.087.09.135.21.132.335a.507.507 0 0 1-.132.34.488.488 0 0 1-.168.108.491.491 0 0 1-.197.029l-1.793-.056.894 1.448a.505.505 0 0 1-.073.628.509.509 0 0 1-.358.149.452.452 0 0 1-.407-.275l-.848-1.523-.843 1.523a.474.474 0 0 1-.416.275ZM94.8 132.693a.508.508 0 0 1-.35-.148.467.467 0 0 1-.157-.355.507.507 0 0 1 .075-.259l.914-1.463-1.777.056a.501.501 0 0 1-.37-.137.482.482 0 0 1 .37-.817l1.752.066-.904-1.458a.504.504 0 0 1-.036-.458.46.46 0 0 1 .117-.161.502.502 0 0 1 .35-.147.45.45 0 0 1 .412.264l.868 1.569.858-1.559a.51.51 0 0 1 .442-.285.461.461 0 0 1 .34.153.499.499 0 0 1 .076.609l-.919 1.473 1.788-.056a.453.453 0 0 1 .36.142c.087.09.134.21.132.335a.507.507 0 0 1-.132.34.463.463 0 0 1-.36.137l-1.798-.055.894 1.447a.508.508 0 0 1-.432.777.444.444 0 0 1-.406-.275l-.848-1.523-.843 1.523a.474.474 0 0 1-.416.265ZM103.04 132.693a.508.508 0 0 1-.355-.148.479.479 0 0 1-.081-.614l.914-1.463-1.778.056a.485.485 0 0 1-.458-.282.482.482 0 0 1 .088-.53.484.484 0 0 1 .37-.142l1.752.066-.904-1.458a.51.51 0 0 1-.076-.264.517.517 0 0 1 .513-.502.457.457 0 0 1 .406.264l.869 1.569.858-1.559a.51.51 0 0 1 .442-.285.46.46 0 0 1 .34.153.495.495 0 0 1 .147.36.506.506 0 0 1-.071.249l-.919 1.473 1.787-.066a.461.461 0 0 1 .508.477.507.507 0 0 1-.127.34.49.49 0 0 1-.168.108.49.49 0 0 1-.197.029l-1.793-.056.889 1.448c.05.08.076.174.076.269a.516.516 0 0 1-.158.355.485.485 0 0 1-.345.153.456.456 0 0 1-.242-.077.448.448 0 0 1-.159-.198l-.853-1.523-.843 1.523a.47.47 0 0 1-.432.275ZM111.276 132.693a.512.512 0 0 1-.508-.503.473.473 0 0 1 .071-.259l.914-1.463-1.777.056a.498.498 0 0 1-.371-.137.506.506 0 0 1 0-.675.507.507 0 0 1 .371-.142l1.757.066-.899-1.458a.5.5 0 0 1-.076-.264.497.497 0 0 1 .157-.355.505.505 0 0 1 .356-.147.452.452 0 0 1 .411.264l.863 1.569.858-1.559a.512.512 0 0 1 .442-.285.448.448 0 0 1 .34.153.497.497 0 0 1 .077.609l-.92 1.473 1.788-.066a.455.455 0 0 1 .362.123.472.472 0 0 1 .146.354.507.507 0 0 1-.127.34.49.49 0 0 1-.168.108.494.494 0 0 1-.198.029l-1.792-.056.888 1.448a.5.5 0 0 1 .036.463.458.458 0 0 1-.117.161.47.47 0 0 1-.345.153.44.44 0 0 1-.401-.275l-.854-1.523-.842 1.523a.48.48 0 0 1-.18.204.485.485 0 0 1-.262.071ZM119.514 132.693a.498.498 0 0 1-.498-.442.504.504 0 0 1 .066-.32l.909-1.463-1.777.056a.505.505 0 0 1-.371-.137.507.507 0 0 1 0-.675.501.501 0 0 1 .371-.142l1.757.066-.904-1.458a.492.492 0 0 1 .076-.619.503.503 0 0 1 .355-.147.46.46 0 0 1 .412.264l.863 1.569.858-1.559a.51.51 0 0 1 .442-.285.458.458 0 0 1 .345.153.507.507 0 0 1 .071.609l-.919 1.473 1.788-.066a.457.457 0 0 1 .362.123.46.46 0 0 1 .145.354.507.507 0 0 1-.127.34.48.48 0 0 1-.365.137l-1.793-.056.889 1.448a.509.509 0 0 1 .036.463.47.47 0 0 1-.117.161.481.481 0 0 1-.346.153.443.443 0 0 1-.401-.275l-.853-1.523-.843 1.523a.474.474 0 0 1-.431.275ZM127.75 132.693a.509.509 0 0 1-.351-.148.462.462 0 0 1-.157-.355.504.504 0 0 1 .076-.259l.909-1.463-1.777.056a.466.466 0 0 1-.359-.127.469.469 0 0 1-.149-.35.486.486 0 0 1 .137-.335.45.45 0 0 1 .366-.142l1.757.066-.904-1.458a.5.5 0 0 1-.076-.264.502.502 0 0 1 .152-.355.503.503 0 0 1 .355-.147.46.46 0 0 1 .412.264l.863 1.569.863-1.559a.502.502 0 0 1 .437-.285.458.458 0 0 1 .345.153.507.507 0 0 1 .142.36.507.507 0 0 1-.066.249l-.919 1.473 1.783-.066a.447.447 0 0 1 .198.03.473.473 0 0 1 .299.447.503.503 0 0 1-.132.34.49.49 0 0 1-.168.108.49.49 0 0 1-.197.029l-1.793-.056.889 1.448c.05.08.076.174.076.269a.51.51 0 0 1-.152.355.512.512 0 0 1-.351.153.456.456 0 0 1-.242-.077.448.448 0 0 1-.159-.198l-.853-1.523-.843 1.523a.474.474 0 0 1-.411.275Z" fill="#263238"/><path d="M153.367 29.82H63.478v5.63h89.889v-5.63Z" fill="#FB980D" style="mix-blend-mode:multiply"/><path d="M118.197 19.445h-19.55a1.33 1.33 0 1 1 0-2.66h19.55a1.332 1.332 0 0 1 0 2.66Z" fill="#FB980D" stroke="#263238" stroke-width="1.337" stroke-linecap="round" stroke-linejoin="round"/><path d="M113.755 183.273a5.338 5.338 0 0 0-.896-2.964 5.33 5.33 0 0 0-9.665 1.92 5.33 5.33 0 0 0 8.999 4.81 5.33 5.33 0 0 0 1.562-3.766Z" fill="#FB980D"/><path d="M111.13 180.572h-5.403v5.403h5.403v-5.403Z" fill="#FB980D" stroke="#263238" stroke-width="1.337" stroke-linecap="round" stroke-linejoin="round"/><path d="M172.785 121.963s-7.079-17.986-.777-20.124c6.561-2.229 6.271 9.648 6.017 15.437-.533 12.37-1.899 14.67-2.919 11.649l-2.321-6.962Zm-2.128 14.03c1.945 2.539 2.494-.091-1.015-11.968-1.645-5.586-5.22-16.884-10.704-12.644-5.266 4.062 7.266 18.788 7.266 18.788l4.453 5.824Zm-3.757 10.308c1.853 1.645 1.889-.431-2.514-9.008-2.067-4.017-6.439-12.146-10.019-8.125-3.437 3.88 8.277 13.31 8.277 13.31l4.256 3.823Zm-4.063 12.258c1.854 1.651 1.889-.431-2.513-9.003-2.067-4.016-6.439-12.151-10.019-8.124-3.417 3.889 8.262 13.319 8.262 13.319l4.27 3.808Zm11.73-24.953c-2.965 1.158-.609 2.418 11.776 2.382 5.809 0 17.671-.264 15.142-6.718-2.422-6.2-20.063 1.696-20.063 1.696l-6.855 2.64Zm-3.376 8.247c-3.139.543-1.077 2.25 11.069 4.677 5.693 1.142 17.367 3.25 16.173-3.555-1.142-6.56-20.001-2.325-20.001-2.325l-7.241 1.203Zm-3.778 10.069c-2.671.386-.965 1.874 9.246 4.21 4.789 1.097 14.615 3.153 13.762-2.651-.813-5.585-16.859-2.427-16.859-2.427l-6.149.868Zm-2.869 9.329c-2.616.665-.762 1.965 9.648 3.204 4.874.579 14.863 1.584 13.405-4.098-1.406-5.454-17.026-.625-17.026-.625l-6.027 1.519Zm15.304-37.765c-1.523 3.413 1.64 2.895 12.395-6.489 5.038-4.403 15.143-13.614 7.14-18.2-7.683-4.407-15.945 16.859-15.945 16.859l-3.59 7.83Zm-14.908 49.916c-1.61.939-.031 1.305 7.352-.168 3.464-.685 10.507-2.208 8.125-5.215-2.305-2.894-11.75 3.199-11.75 3.199l-3.727 2.184Z" fill="#FB980D"/><path opacity=".3" d="M172.785 121.963s-7.079-17.986-.777-20.124c6.561-2.229 6.271 9.648 6.017 15.437-.533 12.37-1.899 14.67-2.919 11.649l-2.321-6.962Zm-2.128 14.03c1.945 2.539 2.494-.091-1.015-11.968-1.645-5.586-5.22-16.884-10.704-12.644-5.266 4.062 7.266 18.788 7.266 18.788l4.453 5.824Zm-3.757 10.308c1.853 1.645 1.889-.431-2.514-9.008-2.067-4.017-6.439-12.146-10.019-8.125-3.437 3.88 8.277 13.31 8.277 13.31l4.256 3.823Zm-4.063 12.258c1.854 1.651 1.889-.431-2.513-9.003-2.067-4.016-6.439-12.151-10.019-8.124-3.417 3.889 8.262 13.319 8.262 13.319l4.27 3.808Zm11.73-24.953c-2.965 1.158-.609 2.418 11.776 2.382 5.809 0 17.671-.264 15.142-6.718-2.422-6.2-20.063 1.696-20.063 1.696l-6.855 2.64Zm-3.376 8.247c-3.139.543-1.077 2.25 11.069 4.677 5.693 1.142 17.367 3.25 16.173-3.555-1.142-6.56-20.001-2.325-20.001-2.325l-7.241 1.203Zm-3.778 10.069c-2.671.386-.965 1.874 9.246 4.21 4.789 1.097 14.615 3.153 13.762-2.651-.813-5.585-16.859-2.427-16.859-2.427l-6.149.868Zm-2.869 9.329c-2.616.665-.762 1.965 9.648 3.204 4.874.579 14.863 1.584 13.405-4.098-1.406-5.454-17.026-.625-17.026-.625l-6.027 1.519Zm15.304-37.765c-1.523 3.413 1.64 2.895 12.395-6.489 5.038-4.403 15.143-13.614 7.14-18.2-7.683-4.407-15.945 16.859-15.945 16.859l-3.59 7.83Zm-14.908 49.916c-1.61.939-.031 1.305 7.352-.168 3.464-.685 10.507-2.208 8.125-5.215-2.305-2.894-11.75 3.199-11.75 3.199l-3.727 2.184Z" fill="#fff"/><path d="m175.907 130.336-1.234-20.53 1.234 20.53Zm-3.905 6.774-7.8-17.656 7.8 17.656Zm20.129-5.133-18.692 2.681 18.692-2.681Zm-24.171 14.649-10.121-12.984 10.121 12.984Zm1.777-3.981 13.944.701-13.944-.701Zm-3.301 9.958 10.664 1.056-10.664-1.056Zm-2.574 6.327-5.296-7.967 5.296 7.967Zm-.609 2.813 12.537.117-12.537-.117Zm-2.539 23.521a.32.32 0 0 0 .294-.34c-.797-11.974 3.834-31.585 11.263-47.682 4.748-10.288 23.358-30.508 23.556-30.711a.32.32 0 0 0-.223-.545.311.311 0 0 0-.224.093c-.188.203-18.874 20.5-23.663 30.879-7.566 16.488-12.136 35.743-11.323 48.006a.32.32 0 0 0 .102.212.32.32 0 0 0 .218.088Zm15.188-54.613a.321.321 0 0 0 .299-.335l-1.213-20.54a.318.318 0 0 0-.336-.3.321.321 0 0 0-.299.335l1.234 20.53a.317.317 0 0 0 .315.3v.01Zm-3.789 6.749a.32.32 0 0 0 .163-.417l-7.805-17.656a.313.313 0 0 0-.416-.162.317.317 0 0 0-.163.416l7.8 17.656a.318.318 0 0 0 .289.193.323.323 0 0 0 .153-.03h-.021Zm1.351-2.438 18.682-2.671a.315.315 0 0 0 .236-.112.312.312 0 0 0 .074-.251.319.319 0 0 0-.263-.272.32.32 0 0 0-.134.006l-18.681 2.671a.312.312 0 0 0-.217.106.317.317 0 0 0 .257.523h.046Zm-5.327 11.918a.315.315 0 0 0 .12-.212.316.316 0 0 0-.064-.235l-10.125-13.009a.319.319 0 0 0-.449-.059.32.32 0 0 0-.059.45l10.146 13.03a.318.318 0 0 0 .249.121.318.318 0 0 0 .203-.086h-.021Zm15.823-3.519a.316.316 0 0 0-.084-.227.323.323 0 0 0-.22-.103l-13.919-.706a.326.326 0 0 0-.207.096.325.325 0 0 0-.091.208.32.32 0 0 0 .268.331l13.943.706a.32.32 0 0 0 .33-.305h-.02Zm-6.566 10.329a.31.31 0 0 0-.068-.236.32.32 0 0 0-.216-.115l-10.663-1.051a.317.317 0 0 0-.346.284.32.32 0 0 0 .285.346l10.663 1.056h.031a.313.313 0 0 0 .335-.284h-.021Zm-13.38 5.504a.318.318 0 0 0 .092-.442l-5.271-7.967a.323.323 0 0 0-.442-.086.316.316 0 0 0-.091.441l5.27 7.968a.332.332 0 0 0 .27.142.306.306 0 0 0 .193-.056h-.021Zm12.096 2.666a.325.325 0 0 0-.315-.32l-12.537-.117a.315.315 0 0 0-.315.315.304.304 0 0 0 .089.228.316.316 0 0 0 .226.092l12.537.117a.318.318 0 0 0 .234-.087.309.309 0 0 0 .101-.228h-.02Zm-16.823 18.748c.025-.056 2.163-5.947 8.591-7.353a.32.32 0 0 0 .244-.381.325.325 0 0 0-.381-.239c-6.779 1.483-9.028 7.703-9.054 7.764a.325.325 0 0 0 .199.407h.101a.315.315 0 0 0 .32-.198h-.02Zm1.427 4.656a.32.32 0 0 0 .294-.34c-.797-11.974 3.834-31.585 11.263-47.682 4.748-10.288 23.358-30.508 23.556-30.711a.32.32 0 0 0-.223-.545.311.311 0 0 0-.224.093c-.188.203-18.874 20.5-23.663 30.879-7.566 16.488-12.136 35.743-11.323 48.006a.32.32 0 0 0 .102.212.32.32 0 0 0 .218.088Zm15.188-54.613a.321.321 0 0 0 .299-.335l-1.213-20.54a.318.318 0 0 0-.336-.3.321.321 0 0 0-.299.335l1.234 20.53a.317.317 0 0 0 .315.3v.01Zm-3.789 6.749a.32.32 0 0 0 .163-.417l-7.805-17.656a.313.313 0 0 0-.416-.162.317.317 0 0 0-.163.416l7.8 17.656a.318.318 0 0 0 .289.193.323.323 0 0 0 .153-.03h-.021Zm1.351-2.438 18.682-2.671a.315.315 0 0 0 .236-.112.312.312 0 0 0 .074-.251.319.319 0 0 0-.263-.272.32.32 0 0 0-.134.006l-18.681 2.671a.312.312 0 0 0-.217.106.317.317 0 0 0 .257.523h.046Zm-5.327 11.918a.315.315 0 0 0 .12-.212.316.316 0 0 0-.064-.235l-10.125-13.009a.323.323 0 0 0-.213-.123.324.324 0 0 0-.359.277.33.33 0 0 0 .064.237l10.146 13.03a.318.318 0 0 0 .249.121.318.318 0 0 0 .203-.086h-.021Zm15.823-3.519a.316.316 0 0 0-.084-.227.323.323 0 0 0-.22-.103l-13.919-.706a.326.326 0 0 0-.207.096.325.325 0 0 0-.091.208.32.32 0 0 0 .268.331l13.943.706a.32.32 0 0 0 .33-.305h-.02Zm-6.566 10.329a.31.31 0 0 0-.068-.236.32.32 0 0 0-.216-.115l-10.663-1.051a.317.317 0 0 0-.346.284.32.32 0 0 0 .285.346l10.663 1.056h.031a.313.313 0 0 0 .335-.284h-.021Zm-13.38 5.504a.318.318 0 0 0 .092-.442l-5.271-7.967a.323.323 0 0 0-.442-.086.316.316 0 0 0-.091.441l5.27 7.968a.332.332 0 0 0 .27.142.306.306 0 0 0 .193-.056h-.021Zm12.096 2.666a.325.325 0 0 0-.315-.32l-12.537-.117a.315.315 0 0 0-.315.315.304.304 0 0 0 .089.228.316.316 0 0 0 .226.092l12.537.117a.318.318 0 0 0 .234-.087.309.309 0 0 0 .101-.228h-.02Zm-16.823 18.748c.025-.056 2.163-5.947 8.591-7.353a.32.32 0 0 0 .244-.381.325.325 0 0 0-.381-.239c-6.779 1.483-9.028 7.703-9.054 7.764a.325.325 0 0 0 .199.407h.101a.315.315 0 0 0 .32-.198h-.02Z" fill="#FB980D"/><path opacity=".2" d="m175.907 130.336-1.234-20.53 1.234 20.53Zm-3.905 6.774-7.8-17.656 7.8 17.656Zm20.129-5.133-18.692 2.681 18.692-2.681Zm-24.171 14.649-10.121-12.984 10.121 12.984Zm1.777-3.981 13.944.701-13.944-.701Zm-3.301 9.958 10.664 1.056-10.664-1.056Zm-2.574 6.327-5.296-7.967 5.296 7.967Zm-.609 2.813 12.537.117-12.537-.117Zm-2.539 23.521a.32.32 0 0 0 .294-.34c-.797-11.974 3.834-31.585 11.263-47.682 4.748-10.288 23.358-30.508 23.556-30.711a.32.32 0 0 0-.223-.545.311.311 0 0 0-.224.093c-.188.203-18.874 20.5-23.663 30.879-7.566 16.488-12.136 35.743-11.323 48.006a.32.32 0 0 0 .102.212.32.32 0 0 0 .218.088Zm15.188-54.613a.321.321 0 0 0 .299-.335l-1.213-20.54a.318.318 0 0 0-.336-.3.321.321 0 0 0-.299.335l1.234 20.53a.317.317 0 0 0 .315.3v.01Zm-3.789 6.749a.32.32 0 0 0 .163-.417l-7.805-17.656a.313.313 0 0 0-.416-.162.317.317 0 0 0-.163.416l7.8 17.656a.318.318 0 0 0 .289.193.323.323 0 0 0 .153-.03h-.021Zm1.351-2.438 18.682-2.671a.315.315 0 0 0 .236-.112.312.312 0 0 0 .074-.251.319.319 0 0 0-.263-.272.32.32 0 0 0-.134.006l-18.681 2.671a.312.312 0 0 0-.217.106.317.317 0 0 0 .257.523h.046Zm-5.327 11.918a.315.315 0 0 0 .12-.212.316.316 0 0 0-.064-.235l-10.125-13.009a.319.319 0 0 0-.449-.059.32.32 0 0 0-.059.45l10.146 13.03a.318.318 0 0 0 .249.121.318.318 0 0 0 .203-.086h-.021Zm15.823-3.519a.316.316 0 0 0-.084-.227.323.323 0 0 0-.22-.103l-13.919-.706a.326.326 0 0 0-.207.096.325.325 0 0 0-.091.208.32.32 0 0 0 .268.331l13.943.706a.32.32 0 0 0 .33-.305h-.02Zm-6.566 10.329a.31.31 0 0 0-.068-.236.32.32 0 0 0-.216-.115l-10.663-1.051a.317.317 0 0 0-.346.284.32.32 0 0 0 .285.346l10.663 1.056h.031a.313.313 0 0 0 .335-.284h-.021Zm-13.38 5.504a.318.318 0 0 0 .092-.442l-5.271-7.967a.323.323 0 0 0-.442-.086.316.316 0 0 0-.091.441l5.27 7.968a.332.332 0 0 0 .27.142.306.306 0 0 0 .193-.056h-.021Zm12.096 2.666a.325.325 0 0 0-.315-.32l-12.537-.117a.315.315 0 0 0-.315.315.304.304 0 0 0 .089.228.316.316 0 0 0 .226.092l12.537.117a.318.318 0 0 0 .234-.087.309.309 0 0 0 .101-.228h-.02Zm-16.823 18.748c.025-.056 2.163-5.947 8.591-7.353a.32.32 0 0 0 .244-.381.325.325 0 0 0-.381-.239c-6.779 1.483-9.028 7.703-9.054 7.764a.325.325 0 0 0 .199.407h.101a.315.315 0 0 0 .32-.198h-.02Zm1.427 4.656a.32.32 0 0 0 .294-.34c-.797-11.974 3.834-31.585 11.263-47.682 4.748-10.288 23.358-30.508 23.556-30.711a.32.32 0 0 0-.223-.545.311.311 0 0 0-.224.093c-.188.203-18.874 20.5-23.663 30.879-7.566 16.488-12.136 35.743-11.323 48.006a.32.32 0 0 0 .102.212.32.32 0 0 0 .218.088Zm15.188-54.613a.321.321 0 0 0 .299-.335l-1.213-20.54a.318.318 0 0 0-.336-.3.321.321 0 0 0-.299.335l1.234 20.53a.317.317 0 0 0 .315.3v.01Zm-3.789 6.749a.32.32 0 0 0 .163-.417l-7.805-17.656a.313.313 0 0 0-.416-.162.317.317 0 0 0-.163.416l7.8 17.656a.318.318 0 0 0 .289.193.323.323 0 0 0 .153-.03h-.021Zm1.351-2.438 18.682-2.671a.315.315 0 0 0 .236-.112.312.312 0 0 0 .074-.251.319.319 0 0 0-.263-.272.32.32 0 0 0-.134.006l-18.681 2.671a.312.312 0 0 0-.217.106.317.317 0 0 0 .257.523h.046Zm-5.327 11.918a.315.315 0 0 0 .12-.212.316.316 0 0 0-.064-.235l-10.125-13.009a.323.323 0 0 0-.213-.123.324.324 0 0 0-.359.277.33.33 0 0 0 .064.237l10.146 13.03a.318.318 0 0 0 .249.121.318.318 0 0 0 .203-.086h-.021Zm15.823-3.519a.316.316 0 0 0-.084-.227.323.323 0 0 0-.22-.103l-13.919-.706a.326.326 0 0 0-.207.096.325.325 0 0 0-.091.208.32.32 0 0 0 .268.331l13.943.706a.32.32 0 0 0 .33-.305h-.02Zm-6.566 10.329a.31.31 0 0 0-.068-.236.32.32 0 0 0-.216-.115l-10.663-1.051a.317.317 0 0 0-.346.284.32.32 0 0 0 .285.346l10.663 1.056h.031a.313.313 0 0 0 .335-.284h-.021Zm-13.38 5.504a.318.318 0 0 0 .092-.442l-5.271-7.967a.323.323 0 0 0-.442-.086.316.316 0 0 0-.091.441l5.27 7.968a.332.332 0 0 0 .27.142.306.306 0 0 0 .193-.056h-.021Zm12.096 2.666a.325.325 0 0 0-.315-.32l-12.537-.117a.315.315 0 0 0-.315.315.304.304 0 0 0 .089.228.316.316 0 0 0 .226.092l12.537.117a.318.318 0 0 0 .234-.087.309.309 0 0 0 .101-.228h-.02Zm-16.823 18.748c.025-.056 2.163-5.947 8.591-7.353a.32.32 0 0 0 .244-.381.325.325 0 0 0-.381-.239c-6.779 1.483-9.028 7.703-9.054 7.764a.325.325 0 0 0 .199.407h.101a.315.315 0 0 0 .32-.198h-.02Z" fill="#000"/><path d="M169.008 176.312h-14.376v2.975h1.255l2.594 16.234h6.678l2.595-16.234h1.254v-2.975Z" fill="#FB980D"/><path opacity=".3" d="M169.008 176.312h-14.376v2.975h1.255l2.594 16.234h6.678l2.595-16.234h1.254v-2.975Z" fill="#fff"/><path d="M39.583 86.331 22.86 80.873l-1.488-3.93-3.397-.107-6.164-1.168.741 1.274 7.76 5.632 1.914.954 17.488 9.135-.132-6.332Z" fill="#fff" stroke="#263238" stroke-width="1.004" stroke-miterlimit="10"/><path d="m21.373 76.942-1.594-.954-3.184 1.168.528.634 4.25-.848Z" fill="#fff" stroke="#263238" stroke-width="1.004" stroke-linejoin="round"/><path d="M39.583 86.331 22.86 80.873l-1.488-3.93-3.397-.107-6.164-1.168.741 1.274 7.76 5.632 1.914.954 17.488 9.135-.132-6.332Z" fill="#fff"/><path opacity=".5" d="M39.583 86.331 22.86 80.873l-1.488-3.93-3.397-.107-6.164-1.168.741 1.274 7.76 5.632 1.914.954 17.488 9.135-.132-6.332Z" fill="#FB980D" stroke="#263238" stroke-width="1.004" stroke-miterlimit="10"/><path d="M39.583 86.331 22.86 80.873l-1.488-3.93-3.397-.107-6.164-1.168.741 1.274 7.76 5.632 1.914.954 17.488 9.135-.132-6.332Z" stroke="#263238" stroke-width="1.004" stroke-miterlimit="10"/><path d="m21.373 76.942-1.594-.954-3.184 1.168.528.634 4.25-.848Z" fill="#fff"/><path opacity=".5" d="m21.373 76.942-1.594-.954-3.184 1.168.528.634 4.25-.848Z" fill="#FB980D" stroke="#263238" stroke-width="1.004" stroke-linejoin="round"/><path d="m21.373 76.942-1.594-.954-3.184 1.168.528.634 4.25-.848Z" stroke="#263238" stroke-width="1.004" stroke-linejoin="round"/><path d="M43.131 50.903s-.259 2.285.386 3.752c.645 1.468 4.225 6.44 4.225 6.44l-6.683 5.356s-2.772-5.585-3.3-6.49c-.529-.903-1.163-4.793.558-7.58 1.722-2.788 4.2-3.54 4.814-1.478Z" fill="#fff"/><path d="m39.698 58.245 2.9 6.013-1.544 2.198-2.915-5.204 1.56-3.007Z" fill="#FB980D" style="mix-blend-mode:multiply" opacity=".5"/><path d="M43.131 50.903s-.259 2.285.386 3.752c.645 1.468 4.225 6.44 4.225 6.44l-6.683 5.356s-2.772-5.585-3.3-6.49c-.529-.903-1.163-4.793.558-7.58 1.722-2.788 4.2-3.54 4.814-1.478Z" stroke="#263238" stroke-width="1.004" stroke-miterlimit="10"/><path d="M45.203 46.719c-.411-2.54-3.32-7.703-7.937-7.505-2.995.132-4.397.736-5.697 1.472a16.757 16.757 0 0 0-2.945 2.204c-2.255 2.706-3.047 3.448-2.61 5.52a6.216 6.216 0 0 0 .38 2.427c.691 1.843 1.164 3.046 1.763 3.925-.183.858-.66 3.123-.686 3.64-.025.519 1.523.158 2.305-.04 1.453 3.25 4.114 5.505 4.941 5.764 1.442.452 3.722-1.92 4.93-3.758 1.21-1.838.296-3.905.3-4.727.006-.823 2.717-2.63 3.723-3.205 1.005-.574 1.94-3.184 1.533-5.717Z" fill="#fff"/><path d="M26.035 48.41a6.216 6.216 0 0 0 .381 2.427c.69 1.843 1.163 3.046 1.762 3.925-.183.858-.66 3.123-.685 3.64-.026.519 1.523.158 2.305-.04 1.452 3.25 4.113 5.505 4.94 5.764 1.443.452 3.723-1.92 4.931-3.758.302-.459.498-.98.574-1.523-.066-.239-.111-.386-.111-.386s-.681 2.615-2.032 2.275c-1.35-.34-3.417-3.047-4.57-3.982-1.153-.934-.68-2.163-.909-3.554-.228-1.391-3.64-2.615-3.87-3.412-.228-.798.57-4.098.57-4.098s1.294-1.727 1.015-1.016a4.833 4.833 0 0 0 .34 3.753 2.59 2.59 0 0 0 2.392 1.478l1.24-6.14-2.616-2.163-3.047 1.27c-2.275 2.726-3.052 3.468-2.61 5.54Z" fill="#FB980D" style="mix-blend-mode:multiply" opacity=".5"/><path d="M45.203 46.719c-.411-2.54-3.32-7.703-7.937-7.505-2.995.132-4.397.736-5.697 1.472a16.757 16.757 0 0 0-2.945 2.204c-2.255 2.706-3.047 3.448-2.61 5.52a6.216 6.216 0 0 0 .38 2.427c.691 1.843 1.164 3.046 1.763 3.925-.183.858-.66 3.123-.686 3.64-.025.519 1.523.158 2.305-.04 1.453 3.25 4.114 5.505 4.941 5.764 1.442.452 3.722-1.92 4.93-3.758 1.21-1.838.296-3.905.3-4.727.006-.823 2.717-2.63 3.723-3.205 1.005-.574 1.94-3.184 1.533-5.717Z" stroke="#263238" stroke-miterlimit="10"/><path d="m28.787 53.228.508 1.453s1.092.36 2.422-1.092M32.54 60.013s1.208-.122 1.695-1.818M27.939 52.015s.36-1.092 2.538-1.092" stroke="#263238" stroke-miterlimit="10" stroke-linecap="round"/><path d="M39.106 37.193a36.078 36.078 0 0 0-4.779-.366s-4.783-2.757-9.378.183c-4.596 2.94-2.387 8.089-2.387 9.373 0 1.285-1.473 1.29-.553 2.946.918 1.655 4.026.741 4.026.741a4.42 4.42 0 0 1 1.66-3.224c1.656-1.285 2.976-1.564 3.525-1.194 0 0-.366 2.758.183 3.86 0 0 1.838.919 2.391.919.554 0-.36.777 1.473 1.467a2.296 2.296 0 0 0 2.031-.239c.27-1.117.858-2.797 1.955-2.407 1.61.574 3.077 4.535.899 5.886 2.62.477 5.794-4.159 5.981-8.384.188-4.225-4.306-9.084-7.027-9.561Z" fill="#263238"/><path d="M31.3 43.84s1.35-.727 3.006.827c1.656 1.554 4.875 3.63 9.14 2.488M31.112 42.595s.93-1.452 2.483-1.452c1.554 0 5.185 2.178 8.084 2.178M30.055 45.393s-1.761-2.173-3.417-.411c-1.655 1.762-.604 3.428-.604 3.428M23.013 46.846a5.382 5.382 0 0 0 1.757-3.524c.209-2.28 3.321-4.25 5.287-2.382M26.222 38.553s3.113-3.006 5.702.828" stroke="#fff" stroke-width=".5" stroke-linecap="round" stroke-linejoin="round"/><path d="M51.555 186.356s1.915 2.975 1.701 4.89l-.208 1.914s-7.023 1.925-8.51 1.925c-1.488 0-9.364-.747-9.364-.747l-.34-1.351a.448.448 0 0 1 .243-.507l7.023-3.276 2.214-2.422 7.241-.426Z" fill="#fff" stroke="#263238" stroke-width="1.004" stroke-miterlimit="10"/><path d="M45.605 193.587c1.904.147 5.52-1.016 7.617-1.757l-.148 1.33s-7.048 1.925-8.535 1.925c-1.488 0-9.364-.747-9.364-.747l-.244-.965c1.26.006 8.155.021 10.674.214Z" fill="#FB980D" stroke="#263238" stroke-width="1.004" stroke-miterlimit="10"/><path d="m42.11 189.204-10.221 4.449s-.874 2.188 0 2.625c.873.437 19.915 0 19.915 0s1.315-3.458-.762-5.779c-2.076-2.32-8.931-1.295-8.931-1.295Z" fill="#fff" stroke="#263238" stroke-width="1.004" stroke-miterlimit="10"/><path d="M51.804 196.278s-19.042.437-19.915 0c-.422-.213-.437-.828-.34-1.412h20.59c-.067.48-.18.953-.335 1.412ZM37.277 111.914s-2.67 11.836-3.681 19.24c-1.01 7.403-1.605 22.236-1.392 23.937.214 1.701 10.847 30.203 10.847 30.203l1.061 2.539 7.444-1.487s-3.402-10.847-4.676-16.803c-1.275-5.957-4.063-15.742-4.063-17.443 0-1.701 6.601-34.189 7.074-36.322.472-2.133 2.615-5.408 2.615-5.408l-14.254-.289-.975 1.833Z" fill="#FB980D" stroke="#263238" stroke-width="1.004" stroke-miterlimit="10"/><path d="M37.276 111.914s-1.564 10.811-.919 18.326c.645 7.515 2.032 23.516 2.032 25.897 0 2.382 3.843 16.605 4.062 21.073.34 6.454-.137 9.648-.137 9.648l-.229 2.341s4.484.64 5.464.919c1.132.292 2.3.419 3.468.376 0 0 1.63-7.175 1.63-13.289 0-6.113-1.356-18.696-2.03-23.795-.676-5.098 1.451-24.765 2.66-28.436 1.208-3.671 3.849-11.445 2.072-15.416-1.778-3.971-18.073 2.356-18.073 2.356Z" fill="#FB980D" stroke="#263238" stroke-width="1.004" stroke-miterlimit="10"/><path d="m57.324 107.567-.162 4.834s-2.895.574-6.794 1.249c-3.22.559-11.304-.147-14.025-.411a.945.945 0 0 1-.859-1.016l.264-4.366 21.576-.29Z" fill="#263238"/><path d="M46.01 59.378s-4.57 4.94-6.29 8.013c-1.722 3.072-2.402 7.78-3.047 11.486-.645 3.707 1.102 12.41.609 16.407l-1.559 12.588s-.335.853.787 1.787c1.122.934 6.602 1.275 11.552 1.524 1.808.091 7.206-1.072 8.09-1.128 1.066-.066 1.101-1.422 1.147-2.488.213-5.012 1.117-18.372 1.711-24.191 1.224-11.867-5.474-23.323-13-23.998Z" fill="#fff" stroke="#263238" stroke-width="1.004" stroke-miterlimit="10"/><path d="M58.452 90.124c.203-2.635.406-5.027.584-6.748.05-.508.081-1.016.106-1.523l-12.14 2.03-10.43-3.554a57.77 57.77 0 0 0 .365 6.46l10.232 2.863 11.283.472ZM45.558 59.876a84.517 84.517 0 0 0-3.367 3.98l7.708 7.836 2.54-1.016-6.881-10.8Z" fill="#FB980D" style="mix-blend-mode:multiply"/><path d="M46.01 59.378s-4.57 4.94-6.29 8.013a15.58 15.58 0 0 0-1.235 2.935l9.191-10.618a8.628 8.628 0 0 0-1.665-.33Z" fill="#263238"/><path d="M37.028 76.876 47 80.156l12.11-1.39a28.403 28.403 0 0 0-1.985-8.79L47.36 73.89l-8.729-3.956a45.937 45.937 0 0 0-1.604 6.941ZM54.196 102.555a30.884 30.884 0 0 1-15.102-1.234l-2.432-.833-.756 6.094 2.772.777a41.798 41.798 0 0 0 16.214 1.249l2.24-.269c.116-.247.181-.515.192-.787.061-1.356.168-3.326.305-5.586l-3.433.589ZM55.552 94.258a30.762 30.762 0 0 1-15.102-1.24l-3.097-1.06a20.006 20.006 0 0 1-.046 3.32l-.36 2.93 3.087.864a41.786 41.786 0 0 0 16.209 1.254l1.523-.183c.127-2.031.274-4.194.432-6.332l-2.646.447Z" fill="#FB980D" style="mix-blend-mode:multiply"/><path d="m7.911 72.784 9.819 7.895.423-.527-9.819-7.894-.423.526Z" fill="#263238"/><path d="M50.739 64.857s3.6 2.453 3.681 8.246c.036 2.54-.229 4.91-.812 9.07-.584 4.158-4.21 17.701-7.033 19.346-2.824 1.646-7.206-1.462-7.206-1.462L18.174 85.986l-5.124-4.139-2.539-4.793.798-1.523 6.25 4.793-3.366-3.113.66-.837 1.219.848 3.554 1.33.777 5.078 1.097.751 20.276 7.409s-.254-10.912-.066-13c.188-2.086.447-7.332 2.681-11.135" fill="#fff"/><path d="M41.633 83.543c0 3.768.127 8.247.127 8.247l-20.256-7.378-1.097-.752-.777-5.078-3.554-1.33-1.214-.863-.66.838 3.356 3.097-6.25-4.793-.757 1.498 2.539 4.793 5.124 4.164 1.29.858 28.004 9.024-5.875-12.325Z" fill="#FB980D" style="mix-blend-mode:multiply" opacity=".5"/><path d="M50.739 64.857s3.6 2.453 3.681 8.246c.036 2.54-.229 4.91-.812 9.07-.584 4.158-4.21 17.701-7.033 19.346-2.824 1.646-7.206-1.462-7.206-1.462L18.174 85.986l-5.124-4.139-2.539-4.793.798-1.523 6.25 4.793-3.366-3.113.66-.837 1.219.848 3.554 1.33.777 5.078 1.097.751 20.276 7.409s-.254-10.912-.066-13c.188-2.086.447-7.332 2.681-11.135" stroke="#263238" stroke-width="1.004" stroke-miterlimit="10"/><path d="m41.775 91.79 7.74 5.586 2.005-3.555s1.386-1.091 1.59-1.914c.202-.823-.057-2.158.152-2.98.208-.824 1.244-1.595 1.34-3.586.097-1.99 0-3.65 0-3.65s1.676-6.892 1.493-9.888c-.183-2.995-3.072-8.292-5.387-8.409-2.316-.116-5.327.234-7.663 3.768-2.336 3.534-1.859 13.853-2.224 14.498-.366.645.142 3.828.142 3.828a1.781 1.781 0 0 0-.71 1.285c-.041.828.852 2.864.852 2.864l.67 2.153Z" fill="#fff" stroke="#263238" stroke-width="1.004" stroke-miterlimit="10"/><path d="M41.024 79.009a14.34 14.34 0 0 1-.198 2.646c-.325.578.046 3.194.127 3.727a30.141 30.141 0 0 0 13.461 1.015c.097-.353.155-.716.173-1.081.101-1.986 0-3.651 0-3.651s.147-.615.35-1.549a49.016 49.016 0 0 1-13.913-1.107ZM42.73 67.726c-.726 1.457-1.133 3.646-1.366 5.865a30.249 30.249 0 0 0 14.477 1.762c.195-1.174.282-2.364.259-3.555a9.89 9.89 0 0 0-.66-2.742c-4.276.1-8.548-.347-12.71-1.33Z" fill="#FB980D" style="mix-blend-mode:multiply"/><path d="m41.105 89.693.655 2.097 7.739 5.586 2.005-3.555s1.387-1.092 1.59-1.914a2.26 2.26 0 0 0 .066-.437 47.323 47.323 0 0 1-12.055-1.777Z" fill="#263238"/><path d="M46.706 190.052s.173-4.397 1.016-10.826c.843-6.428-1.183-15.558-1.523-17.082-.34-1.523.172-4.905-.168-6.093-.34-1.188-1.985-6.256-1.016-12.136.97-5.881 1.757-21.424 1.757-21.424s-2.442-1.985-3.158-4.57c-.716-2.585-.168-3.397-.168-3.397M47.84 114.762l-.94 5.2" stroke="#263238" stroke-width="1.004" stroke-miterlimit="10"/></svg>