<svg width="139" height="84" fill="none" xmlns="http://www.w3.org/2000/svg"><path d="M9.876 78.266c0-.215-.019-.415-.056-.602a2.805 2.805 0 0 0-.126-.518c-1.204-.205-2.24-.285-3.108-.238-.868.047-1.587.177-2.156.392-.56.205-.975.476-1.246.812-.261.336-.392.695-.392 1.078 0 .644.266 1.134.798 1.47.532.336 1.307.504 2.324.504.588 0 1.125-.08 1.61-.238.495-.15.915-.355 1.26-.616s.611-.57.798-.924c.196-.355.294-.728.294-1.12Zm-2.66-6.748c.476 0 .9-.107 1.274-.322.373-.215.686-.495.938-.84.252-.345.443-.733.574-1.162.13-.439.2-.882.21-1.33 0-.793-.2-1.395-.602-1.806-.392-.41-.938-.616-1.638-.616a2.6 2.6 0 0 0-1.274.308 2.807 2.807 0 0 0-.924.798 3.49 3.49 0 0 0-.574 1.148c-.13.43-.196.873-.196 1.33 0 .803.191 1.419.574 1.848.392.43.938.644 1.638.644Zm7.658-7.238-.126.91c-.047.373-.243.616-.588.728l-1.68.336c.075.215.13.448.168.7a5.087 5.087 0 0 1-.112 2.044 5.39 5.39 0 0 1-.392 1.008 8.92 8.92 0 0 1-.49.882c-.177.27-.345.546-.504.826a5.4 5.4 0 0 0-.378.854c-.103.29-.154.607-.154.952 0 .383.089.737.266 1.064.187.317.387.649.602.994.224.336.425.7.602 1.092.187.392.28.854.28 1.386a4.316 4.316 0 0 1-.476 1.918 4.794 4.794 0 0 1-1.33 1.596c-.57.467-1.27.835-2.1 1.106-.821.27-1.75.406-2.786.406-.83 0-1.587-.089-2.268-.266-.672-.168-1.246-.41-1.722-.728a3.42 3.42 0 0 1-1.106-1.12 2.766 2.766 0 0 1-.392-1.442c0-.607.13-1.143.392-1.61a3.61 3.61 0 0 1 1.036-1.19 5.528 5.528 0 0 1 1.526-.812 8.943 8.943 0 0 1 1.834-.462c.644-.103 1.297-.15 1.96-.14.672 0 1.32.047 1.946.14a2.937 2.937 0 0 1-.182-.504 2.86 2.86 0 0 1-.056-.588c0-.28.042-.574.126-.882.084-.317.22-.658.406-1.022a4.23 4.23 0 0 1-1.19.56c-.439.13-.947.196-1.526.196-.541 0-1.05-.089-1.526-.266a3.675 3.675 0 0 1-1.26-.784 3.963 3.963 0 0 1-.854-1.316c-.205-.523-.308-1.134-.308-1.834 0-.681.126-1.349.378-2.002a5.15 5.15 0 0 1 1.106-1.736 5.344 5.344 0 0 1 1.806-1.232c.719-.317 1.545-.476 2.478-.476.504 0 .985.06 1.442.182.457.112.873.29 1.246.532h3.906Zm7.506 1.246c-.56 0-1.074.117-1.54.35a4.087 4.087 0 0 0-1.26.952c-.374.401-.69.877-.952 1.428a8.48 8.48 0 0 0-.616 1.778c1.372-.177 2.468-.373 3.29-.588.83-.215 1.47-.448 1.918-.7.448-.261.742-.537.882-.826.15-.29.224-.597.224-.924 0-.159-.038-.322-.112-.49a1.176 1.176 0 0 0-.336-.476c-.15-.15-.35-.27-.602-.364-.243-.093-.542-.14-.896-.14Zm4.06 9.842c-.486.495-.957.92-1.414 1.274a7.88 7.88 0 0 1-1.414.882 6.032 6.032 0 0 1-1.498.504 8.154 8.154 0 0 1-1.708.168c-.812 0-1.55-.135-2.212-.406a4.737 4.737 0 0 1-1.666-1.176 5.323 5.323 0 0 1-1.064-1.82c-.243-.719-.364-1.521-.364-2.408 0-.737.074-1.465.224-2.184a9.865 9.865 0 0 1 1.778-3.878c.43-.56.92-1.04 1.47-1.442a6.51 6.51 0 0 1 1.82-.952 6.405 6.405 0 0 1 2.142-.35c.728 0 1.358.103 1.89.308.532.205.97.471 1.316.798.354.317.616.672.784 1.064.168.392.252.775.252 1.148a3.88 3.88 0 0 1-.378 1.708c-.252.513-.714.98-1.386 1.4-.663.41-1.578.77-2.744 1.078-1.167.308-2.665.555-4.494.742-.01.084-.014.168-.014.252v.252c0 1.223.261 2.147.784 2.772.532.625 1.33.938 2.394.938.438 0 .83-.042 1.176-.126a4.89 4.89 0 0 0 .91-.336c.27-.13.508-.27.714-.42l.56-.434c.177-.13.34-.238.49-.322a.86.86 0 0 1 .462-.14c.102 0 .191.028.266.084.084.047.163.107.238.182l.686.84Zm3.151-.112v-.21c0-.093.005-.224.014-.392.02-.168.043-.392.07-.672.038-.28.084-.64.14-1.078l.854-6.916h-1.526a.475.475 0 0 1-.35-.14c-.084-.103-.111-.252-.084-.448l.127-1.106 2.17-.322 1.091-4.242a.715.715 0 0 1 .224-.364.613.613 0 0 1 .407-.14h1.456L33.582 64h3.654l-.224 1.988h-3.669l-.84 6.776c-.046.383-.084.69-.111.924l-.07.56c-.01.13-.02.224-.029.28v.126c0 .439.108.77.322.994.215.224.5.336.854.336.234 0 .434-.033.602-.098.178-.065.332-.135.462-.21.131-.084.239-.159.322-.224a.455.455 0 0 1 .253-.098c.084 0 .149.023.196.07a.589.589 0 0 1 .14.196l.573 1.316a5.328 5.328 0 0 1-1.596.952 4.96 4.96 0 0 1-1.777.336c-.934 0-1.671-.252-2.212-.756-.542-.513-.822-1.25-.84-2.212Z" fill="#000"/><path d="M46.305 67.192c.644 0 1.19-.08 1.638-.238.458-.168.831-.397 1.12-.686.29-.29.5-.625.63-1.008.131-.392.196-.812.196-1.26 0-.896-.294-1.596-.882-2.1-.578-.504-1.479-.756-2.702-.756h-1.904v6.048h1.904ZM56.357 78h-4.284c-.793 0-1.362-.299-1.708-.896l-3.388-5.922c-.158-.252-.336-.434-.532-.546-.196-.121-.476-.182-.84-.182h-1.204V78H39.67V57.602h6.636c1.475 0 2.73.154 3.766.462 1.046.299 1.895.719 2.548 1.26.663.541 1.144 1.18 1.442 1.918.299.737.448 1.54.448 2.408 0 .663-.088 1.288-.266 1.876a5.888 5.888 0 0 1-.784 1.638 5.981 5.981 0 0 1-1.288 1.33 6.717 6.717 0 0 1-1.75.966c.308.159.598.36.868.602.271.233.514.513.728.84L56.357 78Zm9.284-9.002c0-.345-.047-.681-.14-1.008a2.237 2.237 0 0 0-.434-.868 2.112 2.112 0 0 0-.784-.63c-.327-.159-.724-.238-1.19-.238-.822 0-1.466.238-1.932.714-.467.467-.775 1.143-.924 2.03h5.404Zm-5.46 2.52c.14 1.213.508 2.095 1.106 2.646.597.541 1.367.812 2.31.812.504 0 .938-.06 1.302-.182.364-.121.686-.257.966-.406l.784-.406c.242-.121.494-.182.756-.182.345 0 .606.126.784.378l1.26 1.554a6.536 6.536 0 0 1-1.456 1.26 7.78 7.78 0 0 1-1.596.756 8.447 8.447 0 0 1-1.638.364c-.542.075-1.06.112-1.554.112a8.313 8.313 0 0 1-2.87-.49 6.748 6.748 0 0 1-2.338-1.484c-.663-.653-1.19-1.465-1.582-2.436-.383-.97-.574-2.1-.574-3.388 0-.97.163-1.89.49-2.758a6.942 6.942 0 0 1 1.428-2.282 6.898 6.898 0 0 1 2.254-1.554c.886-.383 1.885-.574 2.996-.574.961 0 1.838.15 2.632.448a5.658 5.658 0 0 1 2.058 1.302c.578.57 1.026 1.27 1.344 2.1.326.821.49 1.755.49 2.8 0 .327-.014.593-.042.798-.028.205-.08.369-.154.49a.583.583 0 0 1-.308.252c-.122.047-.28.07-.476.07H60.18ZM72.509 78V66.464l-.952-.196a2.03 2.03 0 0 1-.798-.35c-.196-.159-.294-.392-.294-.7V63.51h2.044v-.826c0-.83.13-1.582.392-2.254a4.894 4.894 0 0 1 1.148-1.722 5.24 5.24 0 0 1 1.834-1.106c.719-.261 1.535-.392 2.45-.392.355 0 .681.023.98.07.299.037.611.103.938.196l-.084 2.114a.783.783 0 0 1-.112.378.825.825 0 0 1-.266.238 1.314 1.314 0 0 1-.336.126 1.613 1.613 0 0 1-.364.042c-.383 0-.723.037-1.022.112-.299.075-.55.21-.756.406a1.775 1.775 0 0 0-.448.756c-.103.308-.154.7-.154 1.176v.686h3.402v2.968h-3.262V78h-4.34Zm17.905-9.002c0-.345-.047-.681-.14-1.008a2.239 2.239 0 0 0-.434-.868 2.113 2.113 0 0 0-.784-.63c-.327-.159-.723-.238-1.19-.238-.821 0-1.465.238-1.932.714-.467.467-.775 1.143-.924 2.03h5.404Zm-5.46 2.52c.14 1.213.509 2.095 1.106 2.646.597.541 1.367.812 2.31.812.504 0 .938-.06 1.302-.182.364-.121.686-.257.966-.406l.784-.406a1.67 1.67 0 0 1 .756-.182c.345 0 .607.126.784.378l1.26 1.554a6.539 6.539 0 0 1-1.456 1.26 7.785 7.785 0 0 1-1.596.756 8.45 8.45 0 0 1-1.638.364 11.38 11.38 0 0 1-1.554.112 8.313 8.313 0 0 1-2.87-.49 6.747 6.747 0 0 1-2.338-1.484c-.663-.653-1.19-1.465-1.582-2.436-.383-.97-.574-2.1-.574-3.388 0-.97.163-1.89.49-2.758a6.942 6.942 0 0 1 1.428-2.282 6.896 6.896 0 0 1 2.254-1.554c.887-.383 1.885-.574 2.996-.574.961 0 1.839.15 2.632.448a5.66 5.66 0 0 1 2.058 1.302c.579.57 1.027 1.27 1.344 2.1.327.821.49 1.755.49 2.8 0 .327-.014.593-.042.798-.028.205-.08.369-.154.49a.584.584 0 0 1-.308.252c-.121.047-.28.07-.476.07h-8.372Zm15.584-5.796c.448-.784.961-1.4 1.54-1.848a3.238 3.238 0 0 1 2.016-.672c.653 0 1.185.154 1.596.462l-.28 3.192c-.047.205-.126.345-.238.42-.103.075-.248.112-.434.112a4.01 4.01 0 0 1-.294-.014l-.378-.028a5.405 5.405 0 0 0-.406-.042 2.584 2.584 0 0 0-.364-.028c-.635 0-1.144.168-1.526.504-.374.336-.691.803-.952 1.4V78h-4.34V63.482h2.576c.215 0 .392.019.532.056.15.037.27.098.364.182a.638.638 0 0 1 .224.308c.056.13.102.29.14.476l.224 1.218Zm10.691 0c.448-.784.962-1.4 1.54-1.848a3.238 3.238 0 0 1 2.016-.672c.654 0 1.186.154 1.596.462l-.28 3.192c-.046.205-.126.345-.238.42-.102.075-.247.112-.434.112a4.06 4.06 0 0 1-.294-.014c-.121-.01-.247-.019-.378-.028a5.351 5.351 0 0 0-.406-.042 2.572 2.572 0 0 0-.364-.028c-.634 0-1.143.168-1.526.504-.373.336-.69.803-.952 1.4V78h-4.34V63.482h2.576c.215 0 .392.019.532.056a.83.83 0 0 1 .364.182.626.626 0 0 1 .224.308c.056.13.103.29.14.476l.224 1.218Zm13.985 6.37c-.868.037-1.582.112-2.142.224-.56.112-1.003.252-1.33.42-.327.168-.555.36-.686.574a1.402 1.402 0 0 0-.182.7c0 .495.135.845.406 1.05.271.196.667.294 1.19.294.56 0 1.05-.098 1.47-.294.42-.196.845-.513 1.274-.952v-2.016Zm-7.812-6.594a8.739 8.739 0 0 1 2.912-1.722 10.177 10.177 0 0 1 3.444-.574c.877 0 1.666.145 2.366.434.709.28 1.307.677 1.792 1.19a5.068 5.068 0 0 1 1.134 1.806c.261.7.392 1.465.392 2.296V78h-1.988c-.411 0-.723-.056-.938-.168-.205-.112-.378-.345-.518-.7l-.308-.798c-.364.308-.714.579-1.05.812a6.932 6.932 0 0 1-1.05.602 4.983 4.983 0 0 1-1.148.35 6.576 6.576 0 0 1-1.344.126 6.073 6.073 0 0 1-1.806-.252 3.926 3.926 0 0 1-1.386-.77 3.405 3.405 0 0 1-.868-1.246c-.205-.504-.308-1.083-.308-1.736 0-.523.131-1.05.392-1.582.261-.541.714-1.031 1.358-1.47.644-.448 1.512-.821 2.604-1.12 1.092-.299 2.469-.467 4.13-.504v-.616c0-.85-.177-1.46-.532-1.834-.345-.383-.84-.574-1.484-.574-.513 0-.933.056-1.26.168a5.934 5.934 0 0 0-.882.378c-.252.14-.499.266-.742.378a2.058 2.058 0 0 1-.868.168 1.25 1.25 0 0 1-.756-.224 1.958 1.958 0 0 1-.504-.532l-.784-1.358Zm19.154-8.456V78h-4.34V57.042h4.34Z" fill="#0428C5"/><rect x="52" y="5.2" width="43.4" height="44.8" rx="2" fill="#FB980D"/><path d="M99.61 6.092c-.365 1.822-1.738 3.537-3.666 3.92a4.555 4.555 0 0 1-4.26-7.529c1.321-1.456 3.553-1.857 5.375-1.128" stroke="#0428C5" stroke-width="1.5" stroke-linecap="round" stroke-linejoin="round"/><path d="m93.415 5.363 1.822 1.822 4.372-4.737" stroke="#0428C5" stroke-width="1.5" stroke-linecap="round" stroke-linejoin="round"/><circle cx="63.362" cy="12.631" r="3.231" fill="#fff"/><path d="M69.823 23.939a6.461 6.461 0 1 0-12.923 0h12.923Z" fill="#fff"/><rect x="56.9" y="30.4" width="26.6" height="2.1" rx="1.05" fill="#fff"/><rect x="56.9" y="36.7" width="13.3" height="2.1" rx="1.05" fill="#fff"/><rect x="56.9" y="43" width="21" height="2.1" rx="1.05" fill="#fff"/></svg>