<svg width="427" height="361" fill="none" xmlns="http://www.w3.org/2000/svg"><path d="M116.078 143.52s4.815-3.967 6.048-6.515c1.052-2.168 1.814-5.237.726-7.576a4.3 4.3 0 0 0-1.02-1.442 4.081 4.081 0 0 0-1.493-.884 3.959 3.959 0 0 0-3.336.395c-2.965 1.894-3.283 8.522-2.53 11.647.063.275 1.56 4.451 1.605 4.375ZM71.58 176.598c.191.19 3.628 2.785 3.628 2.718 0-.066 1.95-6.079 1.623-8.911-.272-2.415-1.26-5.417-3.382-6.714a4.048 4.048 0 0 0-1.613-.626 3.959 3.959 0 0 0-1.718.115 4.067 4.067 0 0 0-1.524.834c-.446.387-.81.867-1.067 1.41-1.45 3.314 1.75 8.968 4.054 11.174ZM172.436 149.534s-17.619 18.996-17.528 42.358c.09 23.362 17.882 42.169 17.882 42.169s17.619-18.996 17.52-42.33c-.1-23.333-17.874-42.197-17.874-42.197Z" fill="#FB980D"/><path d="M147.308 205.841c.235-.263.451-.545.644-.843 1.279-2.026 2.376-4.981 1.551-7.405a4.38 4.38 0 0 0-.849-1.561 4.157 4.157 0 0 0-1.384-1.065 3.978 3.978 0 0 0-3.362-.026c-2.394 1.184-3.573 5.19-3.827 8.466a33.714 33.714 0 0 0-2.548-.53c-.317-.748-.635-1.496-.961-2.244-.327-.748-.59-1.563-.907-2.349-.426-1.165-.807-2.386-1.188-3.608 1.397-.653 5.441-2.632 6.964-4.384 1.524-1.752 3.075-4.546 2.612-7.074a4.427 4.427 0 0 0-.611-1.68 4.236 4.236 0 0 0-1.215-1.274 4.033 4.033 0 0 0-1.606-.645 3.948 3.948 0 0 0-1.719.095c-3.346 1.032-5.314 7.282-5.377 10.53 0 .104 0 .796.118 1.62-.336-1.212-.68-2.406-.98-3.637-.861-3.494-1.632-7.083-2.421-10.672-.163-.748-.335-1.496-.508-2.245 1.179-.539 5.596-2.651 7.182-4.479 1.587-1.827 3.065-4.545 2.603-7.074a4.422 4.422 0 0 0-.609-1.682 4.212 4.212 0 0 0-1.214-1.275 4.018 4.018 0 0 0-1.608-.645 3.937 3.937 0 0 0-1.72.099c-3.337 1.032-5.305 7.282-5.377 10.53 0 .123.063.947.145 1.894-.453-1.951-.907-3.883-1.46-5.786a78.102 78.102 0 0 0-3.292-9.584c.417-.189 5.641-2.547 7.4-4.583 1.56-1.809 3.074-4.555 2.611-7.083a4.42 4.42 0 0 0-.613-1.678 4.229 4.229 0 0 0-1.215-1.272 4.039 4.039 0 0 0-1.605-.646 3.97 3.97 0 0 0-1.717.092c-3.346 1.042-5.314 7.282-5.378 10.54 0 .227.254 3.201.381 4.261v-.113a57.174 57.174 0 0 0-4.797-8.656 75.647 75.647 0 0 0-5.296-7.017c-1.732-2.093-3.445-3.892-4.978-5.473a81.48 81.48 0 0 0-2.339-2.311h.072c.064 0-1.632-4.063-1.759-4.309-1.569-2.841-6.175-7.301-9.585-6.525a4.08 4.08 0 0 0-1.553.787 4.276 4.276 0 0 0-1.11 1.379 4.491 4.491 0 0 0-.23 3.516c.762 2.444 3.355 4.101 5.559 4.887 2.203.786 7.182.426 8.397.312a81.648 81.648 0 0 1 2.394 2.453c1.487 1.619 3.156 3.447 4.842 5.568.454.568.907 1.193 1.37 1.79-.971-.843-2.322-1.97-2.467-2.064-2.63-1.752-8.696-3.514-11.38-1.184-.435.4-.785.891-1.026 1.442a4.467 4.467 0 0 0-.376 1.753 4.47 4.47 0 0 0 .341 1.761c.23.556.57 1.055.997 1.464 1.75 1.8 4.779 2.017 7.082 1.667 2.304-.35 6.702-3.172 7.627-3.788.997 1.345 1.995 2.746 2.947 4.271a56.169 56.169 0 0 1 4.534 8.646c.072.18.127.369.19.54-.408-.502-2.856-3.088-3.056-3.249-2.43-2.036-8.27-4.479-11.181-2.471a4.232 4.232 0 0 0-1.175 1.313 4.432 4.432 0 0 0-.56 1.7 4.491 4.491 0 0 0 .153 1.79c.171.579.456 1.114.839 1.57 1.55 1.989 4.534 2.557 6.864 2.462 2.721-.095 7.962-2.841 8.162-2.983a77.559 77.559 0 0 1 2.983 9.347c.598 2.348 1.115 4.735 1.614 7.178-.544-.644-2.829-3.04-3.011-3.201-2.43-2.036-8.27-4.479-11.19-2.471a4.25 4.25 0 0 0-1.172 1.314 4.448 4.448 0 0 0-.559 1.699 4.509 4.509 0 0 0 .152 1.79c.17.578.455 1.113.836 1.57 1.56 1.988 4.534 2.557 6.873 2.462 2.612-.095 7.69-2.737 8.162-2.964.226 1.098.453 2.197.671 3.305.716 3.598 1.414 7.216 2.203 10.757.281 1.231.59 2.434.907 3.637-.852-.947-2.439-2.604-2.584-2.728-2.431-2.045-8.279-4.488-11.19-2.481a4.238 4.238 0 0 0-1.176 1.314 4.433 4.433 0 0 0-.56 1.699 4.494 4.494 0 0 0 .153 1.791c.171.579.457 1.114.839 1.57 1.551 1.998 4.534 2.556 6.865 2.471 2.33-.085 6.647-2.216 7.853-2.841.535 1.998 1.097 3.968 1.75 5.881.299.814.544 1.667.907 2.434l.498 1.221-.68-.066s0 1.146.064 2.992c-2.567-1.893-6.266-3.551-8.669-2.395-.52.268-.98.648-1.351 1.114a4.396 4.396 0 0 0-.799 1.591 4.523 4.523 0 0 0-.109 1.794c.084.599.289 1.173.599 1.684.155.273.334.53.535.767a17.122 17.122 0 0 0 3.319 7.718c.127.152 1.868 1.837 2.784 2.671-.907-.493-1.759-.947-2.666-1.525-1.306-.757-2.666-1.6-3.99-2.415l-2.113-1.411c-.698-.445-1.315-.947-1.986-1.439-.97-.729-1.931-1.525-2.892-2.33.816-1.344 3.155-5.331 3.5-7.661.344-2.329.154-5.568-1.569-7.405a4.15 4.15 0 0 0-1.391-1.056 3.98 3.98 0 0 0-3.366 0 4.15 4.15 0 0 0-1.391 1.056c-2.24 2.841-.581 9.138 1.079 11.894.054.085.462.634.907 1.269a128.79 128.79 0 0 1-2.721-2.462c-2.557-2.424-5.096-4.972-7.653-7.51l-1.56-1.543c.698-1.127 3.265-5.426 3.627-7.86.363-2.434.155-5.568-1.559-7.415a4.144 4.144 0 0 0-1.392-1.056 3.975 3.975 0 0 0-3.365 0 4.14 4.14 0 0 0-1.392 1.056c-2.24 2.841-.58 9.129 1.08 11.885.054.104.544.748 1.097 1.467-1.406-1.354-2.82-2.699-4.271-3.977a73.068 73.068 0 0 0-7.808-6.098c.245-.398 3.355-5.379 3.754-8.088.345-2.405.154-5.568-1.569-7.405-.386-.45-.86-.81-1.388-1.056a3.983 3.983 0 0 0-1.681-.374c-.58 0-1.152.128-1.68.374a4.135 4.135 0 0 0-1.39 1.056c-2.249 2.841-.589 9.138 1.07 11.894.118.189 1.914 2.528 2.576 3.333l-.1-.066a52.616 52.616 0 0 0-8.57-4.46 72.169 72.169 0 0 0-8.16-2.841c-2.558-.748-4.934-1.26-7.037-1.705a129.107 129.107 0 0 0-3.183-.577h.063c.045 0-3.51-2.453-3.754-2.576-2.784-1.449-8.996-2.529-11.435.076a4.354 4.354 0 0 0-.876 1.546 4.5 4.5 0 0 0 .318 3.499c.285.527.673.986 1.138 1.347 1.932 1.6 4.96 1.487 7.255.88 2.294-.606 6.212-3.787 7.164-4.583a98.62 98.62 0 0 1 3.3.672c2.095.483 4.453 1.052 6.974 1.894.68.218 1.396.474 2.095.701-1.26-.132-2.984-.303-3.156-.303-3.11.066-9.068 2.083-10.111 5.578a4.483 4.483 0 0 0-.1 1.793 4.42 4.42 0 0 0 .61 1.679c.314.508.727.942 1.213 1.272.485.33 1.032.55 1.605.644 2.421.493 5.06-1.07 6.792-2.689 1.732-1.62 3.908-6.506 4.362-7.576 1.541.54 3.11 1.136 4.706 1.894a52.65 52.65 0 0 1 8.37 4.593c.154.104.3.236.453.341-.607-.18-4.017-.947-4.262-.947-3.101-.303-9.267 1.022-10.637 4.375a4.468 4.468 0 0 0 .134 3.503 4.27 4.27 0 0 0 1.065 1.406c.446.385.964.668 1.522.829 2.358.767 5.142-.483 7.037-1.894 2.185-1.628 5.114-6.998 5.223-7.197a72.96 72.96 0 0 1 7.427 6.08c1.74 1.619 3.446 3.324 5.141 5.057-.798-.218-3.962-.947-4.198-.947-3.102-.303-9.268 1.023-10.637 4.375a4.491 4.491 0 0 0 .137 3.505 4.291 4.291 0 0 0 1.063 1.408c.446.386.963.671 1.52.835 2.358.767 5.142-.483 7.037-1.894 2.131-1.591 4.96-6.714 5.205-7.15l2.304 2.368c2.493 2.595 4.987 5.208 7.526 7.708.907.862 1.814 1.686 2.666 2.51-1.206-.284-3.409-.767-3.627-.786-3.11-.294-9.268 1.032-10.646 4.384a4.478 4.478 0 0 0 .137 3.502c.257.541.619 1.02 1.064 1.405.445.385.963.669 1.519.832 2.349.767 5.142-.483 7.037-1.894 1.895-1.411 4.371-5.682 5.051-6.885a99.808 99.808 0 0 0 4.534 3.892c.68.512 1.342 1.08 2.022 1.535l2.004 1.401c1.397.947 2.721 1.752 4.027 2.557.662.417 1.296.786 1.949 1.184-1.179-.483-3.056-1.212-3.237-1.26-3.02-.786-9.313-.454-11.154 2.642a4.48 4.48 0 0 0-.363 3.494c.178.576.47 1.107.858 1.558.387.45.862.81 1.391 1.056 2.213 1.137 5.151.341 7.255-.757 2.285-1.212 5.731-5.682 6.148-6.213 1.605.947 3.174 1.894 4.652 2.69a202.14 202.14 0 0 0 10.084 5.284c8.705 7.86 20.956 8.731 20.956 8.731s.644-15.322-7.989-25.407a30.244 30.244 0 0 0-10.737-7.756Zm-15.533 14.934c.272-.625 2.358-5.493 2.503-8.239.48-.095.97-.199 1.441-.312a36.268 36.268 0 0 0 5.441 13.494c-1.587-.786-3.3-1.657-5.114-2.623-1.397-.72-2.82-1.496-4.271-2.32ZM211.502 202.905s-14.682.474-23.668 10.218c-8.987 9.745-8.869 25.086-8.869 25.086s14.681-.474 23.659-10.218c8.977-9.745 8.878-25.086 8.878-25.086Z" fill="#FB980D"/><g opacity=".5" fill="#fff"><path d="M116.078 143.52s4.815-3.967 6.048-6.515c1.052-2.168 1.814-5.237.726-7.576a4.3 4.3 0 0 0-1.02-1.442 4.081 4.081 0 0 0-1.493-.884 3.959 3.959 0 0 0-3.336.395c-2.965 1.894-3.283 8.522-2.53 11.647.063.275 1.56 4.451 1.605 4.375ZM71.58 176.598c.191.19 3.628 2.785 3.628 2.718 0-.066 1.95-6.079 1.623-8.911-.272-2.415-1.26-5.417-3.382-6.714a4.048 4.048 0 0 0-1.613-.626 3.959 3.959 0 0 0-1.718.115 4.067 4.067 0 0 0-1.524.834c-.446.387-.81.867-1.067 1.41-1.45 3.314 1.75 8.968 4.054 11.174ZM172.436 149.534s-17.619 18.996-17.528 42.358c.09 23.362 17.882 42.169 17.882 42.169s17.619-18.996 17.52-42.33c-.1-23.333-17.874-42.197-17.874-42.197Z"/><path d="M147.308 205.841c.235-.263.451-.545.644-.843 1.279-2.026 2.376-4.981 1.551-7.405a4.38 4.38 0 0 0-.849-1.561 4.157 4.157 0 0 0-1.384-1.065 3.978 3.978 0 0 0-3.362-.026c-2.394 1.184-3.573 5.19-3.827 8.466a33.714 33.714 0 0 0-2.548-.53c-.317-.748-.635-1.496-.961-2.244-.327-.748-.59-1.563-.907-2.349-.426-1.165-.807-2.386-1.188-3.608 1.397-.653 5.441-2.632 6.964-4.384 1.524-1.752 3.075-4.546 2.612-7.074a4.427 4.427 0 0 0-.611-1.68 4.236 4.236 0 0 0-1.215-1.274 4.033 4.033 0 0 0-1.606-.645 3.948 3.948 0 0 0-1.719.095c-3.346 1.032-5.314 7.282-5.377 10.53 0 .104 0 .796.118 1.62-.336-1.212-.68-2.406-.98-3.637-.861-3.494-1.632-7.083-2.421-10.672-.163-.748-.335-1.496-.508-2.245 1.179-.539 5.596-2.651 7.182-4.479 1.587-1.827 3.065-4.545 2.603-7.074a4.422 4.422 0 0 0-.609-1.682 4.212 4.212 0 0 0-1.214-1.275 4.018 4.018 0 0 0-1.608-.645 3.937 3.937 0 0 0-1.72.099c-3.337 1.032-5.305 7.282-5.377 10.53 0 .123.063.947.145 1.894-.453-1.951-.907-3.883-1.46-5.786a78.102 78.102 0 0 0-3.292-9.584c.417-.189 5.641-2.547 7.4-4.583 1.56-1.809 3.074-4.555 2.611-7.083a4.42 4.42 0 0 0-.613-1.678 4.229 4.229 0 0 0-1.215-1.272 4.039 4.039 0 0 0-1.605-.646 3.97 3.97 0 0 0-1.717.092c-3.346 1.042-5.314 7.282-5.378 10.54 0 .227.254 3.201.381 4.261v-.113a57.174 57.174 0 0 0-4.797-8.656 75.647 75.647 0 0 0-5.296-7.017c-1.732-2.093-3.445-3.892-4.978-5.473a81.48 81.48 0 0 0-2.339-2.311h.072c.064 0-1.632-4.063-1.759-4.309-1.569-2.841-6.175-7.301-9.585-6.525a4.08 4.08 0 0 0-1.553.787 4.276 4.276 0 0 0-1.11 1.379 4.491 4.491 0 0 0-.23 3.516c.762 2.444 3.355 4.101 5.559 4.887 2.203.786 7.182.426 8.397.312a81.648 81.648 0 0 1 2.394 2.453c1.487 1.619 3.156 3.447 4.842 5.568.454.568.907 1.193 1.37 1.79-.971-.843-2.322-1.97-2.467-2.064-2.63-1.752-8.696-3.514-11.38-1.184-.435.4-.785.891-1.026 1.442a4.467 4.467 0 0 0-.376 1.753 4.47 4.47 0 0 0 .341 1.761c.23.556.57 1.055.997 1.464 1.75 1.8 4.779 2.017 7.082 1.667 2.304-.35 6.702-3.172 7.627-3.788.997 1.345 1.995 2.746 2.947 4.271a56.169 56.169 0 0 1 4.534 8.646c.072.18.127.369.19.54-.408-.502-2.856-3.088-3.056-3.249-2.43-2.036-8.27-4.479-11.181-2.471a4.232 4.232 0 0 0-1.175 1.313 4.432 4.432 0 0 0-.56 1.7 4.491 4.491 0 0 0 .153 1.79c.171.579.456 1.114.839 1.57 1.55 1.989 4.534 2.557 6.864 2.462 2.721-.095 7.962-2.841 8.162-2.983a77.559 77.559 0 0 1 2.983 9.347c.598 2.348 1.115 4.735 1.614 7.178-.544-.644-2.829-3.04-3.011-3.201-2.43-2.036-8.27-4.479-11.19-2.471a4.25 4.25 0 0 0-1.172 1.314 4.448 4.448 0 0 0-.559 1.699 4.509 4.509 0 0 0 .152 1.79c.17.578.455 1.113.836 1.57 1.56 1.988 4.534 2.557 6.873 2.462 2.612-.095 7.69-2.737 8.162-2.964.226 1.098.453 2.197.671 3.305.716 3.598 1.414 7.216 2.203 10.757.281 1.231.59 2.434.907 3.637-.852-.947-2.439-2.604-2.584-2.728-2.431-2.045-8.279-4.488-11.19-2.481a4.238 4.238 0 0 0-1.176 1.314 4.433 4.433 0 0 0-.56 1.699 4.494 4.494 0 0 0 .153 1.791c.171.579.457 1.114.839 1.57 1.551 1.998 4.534 2.556 6.865 2.471 2.33-.085 6.647-2.216 7.853-2.841.535 1.998 1.097 3.968 1.75 5.881.299.814.544 1.667.907 2.434l.498 1.221-.68-.066s0 1.146.064 2.992c-2.567-1.893-6.266-3.551-8.669-2.395-.52.268-.98.648-1.351 1.114a4.396 4.396 0 0 0-.799 1.591 4.523 4.523 0 0 0-.109 1.794c.084.599.289 1.173.599 1.684.155.273.334.53.535.767a17.122 17.122 0 0 0 3.319 7.718c.127.152 1.868 1.837 2.784 2.671-.907-.493-1.759-.947-2.666-1.525-1.306-.757-2.666-1.6-3.99-2.415l-2.113-1.411c-.698-.445-1.315-.947-1.986-1.439-.97-.729-1.931-1.525-2.892-2.33.816-1.344 3.155-5.331 3.5-7.661.344-2.329.154-5.568-1.569-7.405a4.15 4.15 0 0 0-1.391-1.056 3.98 3.98 0 0 0-3.366 0 4.15 4.15 0 0 0-1.391 1.056c-2.24 2.841-.581 9.138 1.079 11.894.054.085.462.634.907 1.269a128.79 128.79 0 0 1-2.721-2.462c-2.557-2.424-5.096-4.972-7.653-7.51l-1.56-1.543c.698-1.127 3.265-5.426 3.627-7.86.363-2.434.155-5.568-1.559-7.415a4.144 4.144 0 0 0-1.392-1.056 3.975 3.975 0 0 0-3.365 0 4.14 4.14 0 0 0-1.392 1.056c-2.24 2.841-.58 9.129 1.08 11.885.054.104.544.748 1.097 1.467-1.406-1.354-2.82-2.699-4.271-3.977a73.068 73.068 0 0 0-7.808-6.098c.245-.398 3.355-5.379 3.754-8.088.345-2.405.154-5.568-1.569-7.405-.386-.45-.86-.81-1.388-1.056a3.983 3.983 0 0 0-1.681-.374c-.58 0-1.152.128-1.68.374a4.135 4.135 0 0 0-1.39 1.056c-2.249 2.841-.589 9.138 1.07 11.894.118.189 1.914 2.528 2.576 3.333l-.1-.066a52.616 52.616 0 0 0-8.57-4.46 72.169 72.169 0 0 0-8.16-2.841c-2.558-.748-4.934-1.26-7.037-1.705a129.107 129.107 0 0 0-3.183-.577h.063c.045 0-3.51-2.453-3.754-2.576-2.784-1.449-8.996-2.529-11.435.076a4.354 4.354 0 0 0-.876 1.546 4.5 4.5 0 0 0 .318 3.499c.285.527.673.986 1.138 1.347 1.932 1.6 4.96 1.487 7.255.88 2.294-.606 6.212-3.787 7.164-4.583a98.62 98.62 0 0 1 3.3.672c2.095.483 4.453 1.052 6.974 1.894.68.218 1.396.474 2.095.701-1.26-.132-2.984-.303-3.156-.303-3.11.066-9.068 2.083-10.111 5.578a4.483 4.483 0 0 0-.1 1.793 4.42 4.42 0 0 0 .61 1.679c.314.508.727.942 1.213 1.272.485.33 1.032.55 1.605.644 2.421.493 5.06-1.07 6.792-2.689 1.732-1.62 3.908-6.506 4.362-7.576 1.541.54 3.11 1.136 4.706 1.894a52.65 52.65 0 0 1 8.37 4.593c.154.104.3.236.453.341-.607-.18-4.017-.947-4.262-.947-3.101-.303-9.267 1.022-10.637 4.375a4.468 4.468 0 0 0 .134 3.503 4.27 4.27 0 0 0 1.065 1.406c.446.385.964.668 1.522.829 2.358.767 5.142-.483 7.037-1.894 2.185-1.628 5.114-6.998 5.223-7.197a72.96 72.96 0 0 1 7.427 6.08c1.74 1.619 3.446 3.324 5.141 5.057-.798-.218-3.962-.947-4.198-.947-3.102-.303-9.268 1.023-10.637 4.375a4.491 4.491 0 0 0 .137 3.505 4.291 4.291 0 0 0 1.063 1.408c.446.386.963.671 1.52.835 2.358.767 5.142-.483 7.037-1.894 2.131-1.591 4.96-6.714 5.205-7.15l2.304 2.368c2.493 2.595 4.987 5.208 7.526 7.708.907.862 1.814 1.686 2.666 2.51-1.206-.284-3.409-.767-3.627-.786-3.11-.294-9.268 1.032-10.646 4.384a4.478 4.478 0 0 0 .137 3.502c.257.541.619 1.02 1.064 1.405.445.385.963.669 1.519.832 2.349.767 5.142-.483 7.037-1.894 1.895-1.411 4.371-5.682 5.051-6.885a99.808 99.808 0 0 0 4.534 3.892c.68.512 1.342 1.08 2.022 1.535l2.004 1.401c1.397.947 2.721 1.752 4.027 2.557.662.417 1.296.786 1.949 1.184-1.179-.483-3.056-1.212-3.237-1.26-3.02-.786-9.313-.454-11.154 2.642a4.48 4.48 0 0 0-.363 3.494c.178.576.47 1.107.858 1.558.387.45.862.81 1.391 1.056 2.213 1.137 5.151.341 7.255-.757 2.285-1.212 5.731-5.682 6.148-6.213 1.605.947 3.174 1.894 4.652 2.69a202.14 202.14 0 0 0 10.084 5.284c8.705 7.86 20.956 8.731 20.956 8.731s.644-15.322-7.989-25.407a30.244 30.244 0 0 0-10.737-7.756Zm-15.533 14.934c.272-.625 2.358-5.493 2.503-8.239.48-.095.97-.199 1.441-.312a36.268 36.268 0 0 0 5.441 13.494c-1.587-.786-3.3-1.657-5.114-2.623-1.397-.72-2.82-1.496-4.271-2.32ZM211.502 202.905s-14.682.474-23.668 10.218c-8.987 9.745-8.869 25.086-8.869 25.086s14.681-.474 23.659-10.218c8.977-9.745 8.878-25.086 8.878-25.086Z"/></g><path d="m173.162 212.782 14.418-13.532-.617-.72-13.81 12.964-.073-17.746.082.057 12.187-18.618-.762-.549-11.507 17.576-.181-42.68h-.925l.118 28.977-9.177-8.295-.599.729 9.785 8.845.081 20.72-13.91-12.86-.608.729 14.527 13.418.073 18.864-10.456-8.57-.562.767 11.027 9.034.054 12.141h.925l-.09-21.251ZM159.877 218.01l-.916-.114-1.161 10.72-6.193-7.226h.018l-1.578-12.973-.916.123 1.406 11.6-15.389-17.964-.689.644 10.446 12.188-6.61.085.009.966 7.418-.095 7.317 8.551-10.337.01v.966l11.163-.01 6.656 7.766-7.291.464.063.956 8.017-.502 4.434 5.18.689-.644-7.808-9.119 1.252-11.572ZM194.716 221.826l12.279-2.595-.191-.947-10.972 2.32 15.996-17.358-.662-.672-10.855 11.78-.58-6.875-.916.086.644 7.717-7.617 8.258-.78-10.767-.925.076.843 11.629-6.919 7.509-.979-7.557-.925.123 1.088 8.324-4.615 5 .662.663 8.125-8.807 11.144.445.037-.966-10.32-.407 6.438-6.988v.009Z" fill="#fff"/><path d="M217.622 321.663 109.621 115.762 35 142.135l24.203 49.148-1.533-2.746-4.534 1.572a3.282 3.282 0 0 0-1.212.756c-.347.34-.62.755-.798 1.215a3.586 3.586 0 0 0 .124 2.877l11.934 24.234a8.03 8.03 0 0 0 3.464 3.587 7.557 7.557 0 0 0 4.824.759l3.31-.577L132.908 341l84.714-19.337Z" fill="#0428C5"/><path d="M287.393 26.86a4.809 4.809 0 0 1-3.796.43 5.042 5.042 0 0 1-2.978-2.495l-2.766-5.275-168.232 96.242 108.002 205.901 168.24-96.232-58.797-112.094a5.41 5.41 0 0 1-.411-3.959 5.17 5.17 0 0 1 2.387-3.105 5.05 5.05 0 0 0 1.493-1.306c.41-.533.716-1.146.9-1.803a5.449 5.449 0 0 0 .17-2.026 5.356 5.356 0 0 0-.586-1.939l-36.862-70.275a5.033 5.033 0 0 0-2.973-2.494 4.798 4.798 0 0 0-3.791.43Z" fill="#FB980D" stroke="#0428C5" stroke-linecap="round" stroke-linejoin="round"/><path d="M295.761 34.456 159.13 85.32l65.237 191.11 136.631-50.863-65.237-191.11Z" fill="#fff" stroke="#0428C5" stroke-linecap="round" stroke-linejoin="round"/><path d="M295.769 34.464 159.137 85.327l24.034 70.405 136.631-50.863-24.033-70.405Z" fill="#fff" stroke="#0428C5" stroke-linecap="round" stroke-linejoin="round"/><path d="M285.193 106.795c10.203-6.764 13.223-20.884 6.746-31.538-6.478-10.655-19.999-13.808-30.201-7.044-10.203 6.764-13.222 20.884-6.745 31.538 6.477 10.654 19.998 13.808 30.2 7.044Z" fill="#0428C5" stroke="#0428C5" stroke-linecap="round" stroke-linejoin="round"/><path d="M280.809 109.057a21.734 21.734 0 0 0 8.075-5.307 22.95 22.95 0 0 0 5.137-8.396c-3.799-8.882-13.085-13.513-21.446-10.416-8.361 3.096-12.74 12.84-10.301 22.225a21.202 21.202 0 0 0 9.065 3.113 20.976 20.976 0 0 0 9.47-1.219Z" fill="#fff" stroke="#0428C5" stroke-linecap="round" stroke-linejoin="round"/><path d="M279.344 91.94c4.59-4.235 5.023-11.554.968-16.348-4.055-4.793-11.064-5.246-15.654-1.011s-5.024 11.554-.969 16.347c4.056 4.794 11.064 5.247 15.655 1.012ZM227.521 88.113l-47.816 17.8 1.958 5.736 47.816-17.8-1.958-5.736ZM232.232 101.894l-47.816 17.8 1.958 5.736 47.816-17.801-1.958-5.735Z" fill="#fff" stroke="#0428C5" stroke-linecap="round" stroke-linejoin="round"/><path d="m236.141 113.364-47.816 17.8.98 2.872 47.816-17.8-.98-2.872ZM238.493 120.255l-47.816 17.801.98 2.872 47.816-17.8-.98-2.873ZM250.444 155.266l-47.816 17.801.98 2.872 47.816-17.8-.98-2.873ZM252.594 161.586l-47.816 17.8.981 2.873 47.816-17.801-.981-2.872ZM254.754 167.896l-47.816 17.801.98 2.872 47.816-17.8-.98-2.873ZM315.297 131.12l-47.816 17.8.981 2.873 47.816-17.801-.981-2.872ZM317.457 137.44l-47.816 17.8.98 2.872 47.816-17.8-.98-2.872ZM319.608 143.753l-47.816 17.8.98 2.873 47.816-17.801-.98-2.872Z" fill="#0428C5"/><path d="m199.559 167.76 115.428-42.955" stroke="#0428C5" stroke-linecap="round" stroke-linejoin="round"/><path d="m261.612 187.982-47.816 17.8.981 2.872 47.816-17.8-.981-2.872ZM263.763 194.305l-47.816 17.8.981 2.872 47.816-17.8-.981-2.872ZM265.923 200.615l-47.816 17.8.98 2.873 47.816-17.801-.98-2.872ZM326.466 163.839l-47.816 17.8.98 2.872 47.816-17.8-.98-2.872ZM328.625 170.158l-47.816 17.801.981 2.872 47.816-17.8-.981-2.873ZM330.776 176.472l-47.816 17.8.981 2.872 47.816-17.8-.981-2.872Z" fill="#0428C5"/><path d="m210.722 200.478 115.427-42.955" stroke="#0428C5" stroke-linecap="round" stroke-linejoin="round"/><path d="m335.085 189.089-113.228 42.15 9.796 28.696 113.227-42.151-9.795-28.695Z" fill="#0428C5" stroke="#0428C5" stroke-linecap="round" stroke-linejoin="round"/><path d="m277.877 46.285-133.313 59.698 76.567 186.469 133.314-59.698-76.568-186.47Z" fill="#fff" stroke="#0428C5" stroke-linecap="round" stroke-linejoin="round"/><path d="M277.884 46.288 144.57 105.986l28.208 68.695 133.314-59.698-28.208-68.695Z" fill="#fff" stroke="#0428C5" stroke-linecap="round" stroke-linejoin="round"/><path d="M277.3 112.904c6.451-10.672 3.395-24.784-6.824-31.52-10.219-6.736-23.733-3.545-30.183 7.127-6.45 10.672-3.395 24.784 6.824 31.52 10.219 6.736 23.733 3.545 30.183-7.127Z" fill="#0428C5" stroke="#0428C5" stroke-linecap="round" stroke-linejoin="round"/><path d="M267.425 121.718a21.897 21.897 0 0 0 7.739-5.828 23.11 23.11 0 0 0 4.62-8.717c-4.316-8.608-13.865-12.633-22.017-8.978-8.152 3.656-11.943 13.646-8.95 22.851a21.126 21.126 0 0 0 9.232 2.509 21.049 21.049 0 0 0 9.376-1.837Z" fill="#fff" stroke="#0428C5" stroke-linecap="round" stroke-linejoin="round"/><path d="M264.647 104.993c4.478-4.363 4.722-11.692.544-16.369-4.178-4.677-11.196-4.932-15.674-.569-4.479 4.363-4.723 11.692-.545 16.369s11.196 4.932 15.675.569ZM212.985 104.305l-46.655 20.892 2.298 5.597 46.654-20.892-2.297-5.597ZM218.506 117.744l-46.654 20.892 2.298 5.597 46.654-20.892-2.298-5.597Z" fill="#fff" stroke="#0428C5" stroke-linecap="round" stroke-linejoin="round"/><path d="m223.108 128.94-46.655 20.892 1.151 2.802 46.654-20.892-1.15-2.802ZM225.866 135.661l-46.654 20.892 1.15 2.802 46.655-20.892-1.151-2.802ZM239.898 169.822l-46.655 20.892 1.151 2.803 46.654-20.893-1.15-2.802ZM242.427 175.981l-46.654 20.892 1.15 2.802 46.655-20.892-1.151-2.802ZM244.949 182.153l-46.655 20.892 1.151 2.802 46.655-20.892-1.151-2.802ZM303.17 141.498l-46.655 20.892 1.151 2.803 46.655-20.892-1.151-2.803ZM305.696 147.648l-46.654 20.892 1.15 2.803 46.655-20.892-1.151-2.803ZM308.235 153.816l-46.654 20.892 1.15 2.803 46.655-20.892-1.151-2.803Z" fill="#0428C5"/><path d="m189.856 185.62 112.626-50.426" stroke="#0428C5" stroke-linecap="round" stroke-linejoin="round"/><path d="m253.001 201.75-46.655 20.892 1.151 2.803 46.654-20.892-1.15-2.803ZM255.536 207.9l-46.655 20.892 1.151 2.803 46.655-20.892-1.151-2.803ZM258.066 214.069l-46.655 20.892 1.151 2.802 46.655-20.892-1.151-2.802ZM316.287 173.414l-46.655 20.892 1.151 2.803 46.655-20.892-1.151-2.803ZM318.813 179.564l-46.654 20.892 1.15 2.803 46.655-20.892-1.151-2.803ZM321.335 185.736l-46.655 20.892 1.151 2.803 46.655-20.892-1.151-2.803Z" fill="#0428C5"/><path d="m202.959 217.543 112.626-50.427" stroke="#0428C5" stroke-linecap="round" stroke-linejoin="round"/><path d="m326.399 198.047-110.478 49.472 11.497 27.999 110.478-49.472-11.497-27.999Z" fill="#0428C5" stroke="#0428C5" stroke-linecap="round" stroke-linejoin="round"/><path d="M247.392 45.051 125.726 127.53l105.786 170.177 121.666-82.479L247.392 45.051Z" fill="#fff" stroke="#0428C5" stroke-linecap="round" stroke-linejoin="round"/><path d="m247.397 45.06-121.666 82.478 38.972 62.694 121.666-82.479-38.972-62.694Z" fill="#fff" stroke="#0428C5" stroke-linecap="round" stroke-linejoin="round"/><path d="M240.94 124.601c11.928-2.025 20.027-13.764 18.089-26.22-1.939-12.457-13.18-20.914-25.108-18.89-11.928 2.025-20.027 13.764-18.089 26.22 1.939 12.457 13.18 20.914 25.108 18.89Z" fill="#0428C5" stroke="#0428C5" stroke-linecap="round" stroke-linejoin="round"/><path d="M249.361 121.15a22.377 22.377 0 0 0 6.681-7.115 23.48 23.48 0 0 0 3.14-9.41c-5.659-7.727-15.724-9.98-23.16-4.943-7.436 5.038-9.558 15.568-5.106 24.11a20.943 20.943 0 0 0 9.506.837 21.261 21.261 0 0 0 8.939-3.479Z" fill="#FB980D" stroke="#0428C5" stroke-linecap="round" stroke-linejoin="round"/><path d="M242.259 107.022c4.663-4.148 5.222-11.458 1.25-16.327-3.972-4.869-10.972-5.453-15.634-1.305-4.663 4.148-5.222 11.458-1.25 16.327 3.972 4.869 10.972 5.453 15.634 1.305ZM192.875 113.738l-42.579 28.865 3.175 5.107 42.578-28.864-3.174-5.108ZM200.496 126.004l-42.578 28.865 3.175 5.107 42.578-28.864-3.175-5.108Z" fill="#fff" stroke="#0428C5" stroke-linecap="round" stroke-linejoin="round"/><path d="m206.089 137.484-42.641 28.626 1.576 2.562 42.642-28.627-1.577-2.561ZM210.669 142.353l-42.579 28.864 1.59 2.558 42.579-28.865-1.59-2.557ZM230.054 173.528l-42.578 28.864 1.59 2.558 42.578-28.864-1.59-2.558ZM233.549 179.159l-42.579 28.864 1.59 2.558 42.578-28.865-1.589-2.557ZM237.043 184.789l-42.578 28.865 1.59 2.557 42.578-28.864-1.59-2.558ZM287.807 134.374l-42.578 28.865 1.589 2.557 42.579-28.864-1.59-2.558ZM291.309 140l-42.578 28.864 1.59 2.558 42.578-28.865-1.59-2.557ZM294.804 145.63l-42.579 28.865 1.59 2.557 42.578-28.864-1.589-2.558Z" fill="#0428C5"/><path d="m183.327 197.931 102.778-69.688" stroke="#0428C5" stroke-linecap="round" stroke-linejoin="round"/><path d="m248.167 202.671-42.578 28.865 1.59 2.558 42.578-28.865-1.59-2.558ZM251.656 208.294l-42.578 28.865 1.59 2.557 42.578-28.864-1.59-2.558ZM255.159 213.91l-42.579 28.865 1.59 2.557 42.578-28.864-1.589-2.558ZM305.92 163.517l-42.579 28.865 1.59 2.558 42.579-28.865-1.59-2.558ZM309.417 169.135 266.839 198l1.589 2.557 42.579-28.864-1.59-2.558ZM312.902 174.766l-42.578 28.864 1.59 2.558 42.578-28.864-1.59-2.558Z" fill="#0428C5"/><path d="m201.436 227.06 102.778-69.679" stroke="#0428C5" stroke-linecap="round" stroke-linejoin="round"/><path d="m319.908 186.007-100.826 68.351 15.884 25.553 100.826-68.351-15.884-25.553Z" fill="#0428C5" stroke="#0428C5" stroke-linecap="round" stroke-linejoin="round"/><path d="m109.621 115.762-64.492-52.14 38.376 75.18c.907 1.818-1.496 2.159-3.944.549-2.476-1.619-4.915-1.26-3.945.578l19.904 37.784a4.667 4.667 0 0 0 1.225 1.373l9.721 7.652c.505.372.929.853 1.242 1.411l40.271 79.877 69.653 53.637-108.011-205.901Z" fill="#FB980D" stroke="#0428C5" stroke-linecap="round" stroke-linejoin="round"/><path opacity=".25" d="m109.621 115.762-64.492-52.14 38.376 75.18c.907 1.818-1.496 2.159-3.944.549-2.476-1.619-4.915-1.26-3.945.578l19.904 37.784a4.667 4.667 0 0 0 1.225 1.373l9.721 7.652c.505.372.929.853 1.242 1.411l40.271 79.877 69.653 53.637-108.011-205.901Z" fill="#0428C5" stroke="#0428C5" stroke-linecap="round" stroke-linejoin="round"/><path d="M384.321 233.759a.135.135 0 0 0-.072-.076c-1.061-.483-9.975-.398-10.211.152 0 .066.046.151.182.246.19.125.39.232.598.322.254.113.562.236.907.36.345.123.671.246 1.025.359l1.514.493.798.246.526.152-9.231 9.327a70.779 70.779 0 0 1-6.049 5.152l-.417-.436a20.427 20.427 0 0 0-1.913-1.704v-.246c-.782.519-1.597.981-2.44 1.382-3.155 1.657-12.006 5.805-15.162 12.453a105.06 105.06 0 0 1-5.259 9.829v.436h-.254c-3.056-.275-8.878 1.847-13.158 4.053a95.927 95.927 0 0 0-10.537 7.055l-3.319 1.222c-1.206.18-3.418.473-3.727.861-.308.389-2.457 0-3.409.247-.953.246-.681.947-.681.947l1.814.18-11.961 4.346 9.622 7.974 13.049-5.057.698.18a5.367 5.367 0 0 0 4.189-.388c.461-.181.912-.386 1.351-.616 2.413-.331 9.749-2.017 12.297-2.604 1.913 2.708 7.372 7.263 8.306 9.233.044.104.081.212.109.322v.076a.538.538 0 0 1 0 .246 14.293 14.293 0 0 1-1.678 3.096 23.703 23.703 0 0 0-3.835-1.278c-4.961-1.193-7.672 4.186-8.534 4.451-.861.265-1.913 1.06-.906 1.818 1.006.758-.517 1.458-1.134 2.481a8.966 8.966 0 0 0-.771 2.566c-3.273.294-6.075 1.705-6.801 3.788-.907 2.661 7.354 4.612 7.354 4.612s11.435 4.669 20.159 1.743c8.723-2.927 8.388-7.804 9.068-10.417.68-2.614 7.799-9.044 15.788-13.523 7.989-4.479 11.462-8.523 3.863-14.593-4.988-3.987-9.377-5.9-12.995-6.051.091-.227.19-.455.29-.673l.182-.416c.108-.237.235-.464.353-.701l.182-.341c.19-.341.389-.672.607-1.004.379-.562.71-1.157.989-1.78a9.859 9.859 0 0 0 .662-6.184 7.951 7.951 0 0 1-.254-1.837c.181-1.24 2.158-6.117 2.666-8.286a1.915 1.915 0 0 0 0-.454 4.98 4.98 0 0 0-.544-1.743c2.04-1.269 6.148-3.579 8.034-5.767 1.886-2.188 6.012-9.981 7.554-13.977.063-.161.117-.322.172-.474.054-.142.1-.293.145-.426.036-.133.073-.256.109-.369v-.048c0-.094.054-.199.072-.284a.094.094 0 0 1 0-.047V234.071a.762.762 0 0 0 0-.151v-.076s.028-.057.018-.085Zm-48.178 53.305c-2.802.815-9.259 2.945-12.696 4.138l-6.347-6.07c1.541-.833 4.96-2.386 8.841-4.129a51.871 51.871 0 0 1 11.136-2.982c.315.609.521 1.273.607 1.96a23.045 23.045 0 0 0 1.36 3.409 12.214 12.214 0 0 1-2.901 3.674Z" fill="#2E353A"/><path d="M373.458 188.171a184.52 184.52 0 0 1 4.761 18.39c1.278 7.321 3.953 22.558 3.953 22.558s-6.728.397-6.846 1.543c-.118 1.146 8.878 5.682 10.22 5.237 1.342-.445 2.112-29.034 1.305-35.531-.807-6.496-5.105-15.151-5.44-17.102-.336-1.951-1.07-5.748-1.07-5.748l-6.883 10.653Z" fill="#fff" stroke="#2E353A" stroke-linecap="round" stroke-linejoin="round"/><path d="M385.546 235.899c.335-.104.634-1.894.906-4.735-2.638 2.027-4.534 0-4.534 0l.245-2.026s-6.728.397-6.846 1.543c-.118 1.146 8.886 5.654 10.229 5.218Z" fill="#FB980D" stroke="#2E353A" stroke-linecap="round" stroke-linejoin="round"/><path d="M369.459 102.517s-10.682-11.496-12.269-12.31c-1.587-.815-2.14.946-1.687 1.94.454.995 11.317 16.033 13.158 17.993 1.841 1.961.798-7.623.798-7.623Z" fill="#fff" stroke="#2E353A" stroke-linecap="round" stroke-linejoin="round"/><path d="m341.747 69.95-14.319 10.777 16.939 25.521 13.095-11.505-15.715-24.792Z" fill="#2E353A" stroke="#2E353A" stroke-linecap="round" stroke-linejoin="round"/><path d="m341.846 72.725-12.115 9.12 14.337 21.6 11.081-9.735-13.303-20.985Z" fill="#FB980D" stroke="#2E353A" stroke-linecap="round" stroke-linejoin="round"/><path d="M358.468 92.243a21.012 21.012 0 0 0-1.704-3.429c-1.179-1.893-1.932-2.907-4.009-2.784a21.72 21.72 0 0 1-4.606-.35c-1.188-.133-1.206 1.657-.581 2.273.626.615 4.081.464 4.081.464-.354-.483-.091.303 2.195 3.589.643.947 2.901 1.108 3.409 1.165" fill="#fff"/><path d="M358.468 92.243a21.012 21.012 0 0 0-1.704-3.429c-1.179-1.893-1.932-2.907-4.009-2.784a21.72 21.72 0 0 1-4.606-.35c-1.188-.133-1.206 1.657-.581 2.273.626.615 4.081.464 4.081.464-.354-.483-.091.303 2.195 3.589.643.947 2.901 1.108 3.409 1.165" stroke="#2E353A" stroke-linecap="round" stroke-linejoin="round"/><path d="M373.793 51.21a45.192 45.192 0 0 0-1.061 7.121c0 2.273 1.179 4.394-.29 5.36-1.469.966-.852 3.03-.136 3.959.717.928.345 12.68 6.049 12.765 5.704.085 11.19-2.983 12.35-6.26 1.161-3.276 4.036-12.604.418-16.998-3.619-4.394-13.992-11.818-17.33-5.947Z" fill="#fff" stroke="#2E353A" stroke-linecap="round" stroke-linejoin="round"/><path d="m374.011 62.09.897 1.724-1.087.038M373.83 59.325s1.704 0 1.813 2.955" stroke="#2E353A" stroke-linecap="round" stroke-linejoin="round"/><path d="M382.889 78.653a48.905 48.905 0 0 1 0 7.955c-.068.432-.233.84-.481 1.193a45.386 45.386 0 0 1 9.068-5.047l.907-.36a104.487 104.487 0 0 1-.689-12.112l-8.805 8.371ZM358.559 192.007s-.49 12.831.544 17.216c1.034 4.384 4.851 40.653 4.688 43.93-.163 3.276-.29 4.621-.29 4.621s-9.44 1.44-10.401 1.724c-.961.284-1.279 1.6 3.945 3.163 5.223 1.562 9.24 3.958 10.355 2.149 1.116-1.809 2.63-8.523 3.074-13.418 1.043-11.364 2.83-24.129 1.76-29.868-1.07-5.739-3.854-12.879-3.473-14.773.38-1.894 6.275-22.727 6.275-22.727l-16.477 7.983Z" fill="#fff" stroke="#2E353A" stroke-linecap="round" stroke-linejoin="round"/><path d="M367.4 264.81c.576-1.248.97-2.579 1.17-3.949-2.766 1.525-6.166-.634-6.166-.634l1.097-2.453s-9.44 1.44-10.401 1.724c-.961.284-1.279 1.6 3.945 3.163 5.223 1.562 9.24 3.958 10.355 2.149ZM382.889 78.653a48.905 48.905 0 0 1 0 7.955c-.381 3.646-16.187 14.337-15.788 18.362.399 4.025 2.258 9.631 1.215 14.337-1.043 4.707-6.828 21.089-7.98 26.923-1.151 5.833-5.531 50.189-3.554 52.14 1.976 1.951 9.975 1.127 14.001-1.25s12.341-11.364 13.076-15.824c.734-4.46 1.56-14.877 2.095-17.377.535-2.5 4.697-8.523 4.235-19.678-.463-11.155 3.391-24.621 4.298-33.305.907-8.684 0-20.455-1.442-25.161-1.442-4.707-1.369-15.493-1.369-15.493l-8.787 8.371Z" fill="#FB980D" stroke="#2E353A" stroke-linecap="round" stroke-linejoin="round"/><path d="M383.841 181.296c.744-4.46 1.56-14.877 2.095-17.377.535-2.5 4.697-8.523 4.235-19.678-.263-6.118.788-12.936 1.94-19.29-3.02 2.992-10.882 9.962-19.27 10.777-6.066.596-8.043-1.25-8.614-2.974-1.678 5.284-3.346 10.635-3.909 13.476-1.16 5.833-5.531 50.189-3.554 52.14 1.976 1.951 9.975 1.127 14.001-1.25s12.341-11.364 13.076-15.824Z" fill="#2E353A" stroke="#2E353A" stroke-linecap="round" stroke-linejoin="round"/><path d="m382.127 168.361-12.242 22.272M376.532 182.603l-5.595 11.686" stroke="#fff" stroke-width=".5" stroke-linecap="round" stroke-linejoin="round"/><path d="M422.335 94.449c-2.367-10.71-9.068-14.413-14.981-18.116-2.72-1.695-3.627-4.593-3.754-7.244l-.299 2.84a18.345 18.345 0 0 1 0-4.043c.1-.625.227-1.297.372-2.026a17.275 17.275 0 0 0-.091 3.191l.608-5.928v.066c.906-5.312 1.314-12.386-4.018-19.801-7.118-9.905-21.355-6.411-21.355-6.411s-9.494-.237-10.084 5.379c-.589 5.615 2.947 10.843 7.726 11.96 0 0 .971 2.16 2.077 5.388a4.75 4.75 0 0 0-1.134 1.771s1.578.824 2.367 6.175c.789 5.35-7.1 15.236-6.348 21.78.753 6.544 7.491 6.629 7.092 10.294-.399 3.664-5.124 2.841-4.725 7.405.281 3.248 5.641 7.349 9.068 10.322a78.534 78.534 0 0 0-.063 9.47 22.622 22.622 0 0 0-3.111 11.932c.236 6.098 5.632 8.267 10.755 6.837a23.862 23.862 0 0 0 4.099-1.591c4.824 2.027 16.558.464 22.199-9.356 5.912-10.294.39-13.589 0-20.995-.39-7.405 5.967-8.598 3.6-19.299Z" fill="#2E353A" stroke="#2E353A" stroke-linecap="round" stroke-linejoin="round"/><path d="M375.761 45.964a43.457 43.457 0 0 0 10.311 10.218c7.49 4.943 2.366 19.763-3.546 26.344-5.912 6.582-4.734 12.766 1.968 16.052 6.701 3.286 18.526 6.998 11.788 18.939-6.737 11.942-7.49 21.402 2.367 24.29M373.458 42.583s.544.947 1.541 2.32M407.073 140.396a4.792 4.792 0 0 0 3.836-.672M399.837 95.216c6.112 2.292 12.696 4.224 13.43 10.758 1.188 10.7-12.614 15.644-12.614 24.28 0 4.063 1.478 6.941 3.41 8.599" stroke="#fff" stroke-width=".5" stroke-linecap="round" stroke-linejoin="round"/><path d="M386.072 56.182s9.458 3.702 11.788 9.877c2.331 6.174-12.215 15.237-7.49 23.059 1.46 2.405 4.072 3.91 7.037 5.16M399.257 47.488s8.161 8.703 4.434 18.41c-3.727 9.706-5.441 14.09-2.72 16.647 2.72 2.557 17.147 3.656 20.666 15.304" stroke="#fff" stroke-width=".5" stroke-linecap="round" stroke-linejoin="round"/><path d="M366.104 129.279s-8.252-6.364-12.152-13.409c-3.899-7.046-7.182-13.031-7.1-13.798.082-.767.481-4.602-.662-6.089-1.142-1.487-5.042-3.295-5.55-3.74-.507-.446-1.568.795-.389 1.894 1.178 1.098 2.348 2.405 2.348 2.405l-7.581-2.027a1.968 1.968 0 0 0 .145 2.15c.835.871 3.219 1.136 3.301 2.121.082.985 2.494 2.841 3.519 3.693.435.452.976.778 1.568.947 0 0 4.344 15.237 7.4 21.601 3.056 6.364 7.708 13.258 10.945 14.205 3.237.947 7.209-5.001 7.209-5.001l-3.001-4.952Z" fill="#fff" stroke="#2E353A" stroke-linecap="round" stroke-linejoin="round"/><path d="M380.44 98.73s-4.416 3.181-5.794 7.48c-1.379 4.3-8.415 14.745-9.431 17.349a15.486 15.486 0 0 1-1.868 3.646s.907 5.682 4.661 8.674c3.754 2.993 4.915 2.699 4.915 2.699s13.602-23.087 15.796-28.457c2.195-5.369-2.43-14.024-8.279-11.392Z" fill="#FB980D" stroke="#2E353A" stroke-linecap="round" stroke-linejoin="round"/><g opacity=".2" fill="#FB980D"><path d="m420.85 360-6.15-6.15 6.15-6.15 6.15 6.15-6.15 6.15ZM420.85 341.55l-6.15-6.15 6.15-6.15 6.15 6.15-6.15 6.15ZM402.4 341.55l-6.15-6.15 6.15-6.15 6.15 6.15-6.15 6.15ZM420.85 323.1l-6.15-6.15 6.15-6.15 6.15 6.15-6.15 6.15ZM402.4 323.1l-6.15-6.15 6.15-6.15 6.15 6.15-6.15 6.15ZM420.85 304.65l-6.15-6.15 6.15-6.15 6.15 6.15-6.15 6.15ZM402.4 304.65l-6.15-6.15 6.15-6.15 6.15 6.15-6.15 6.15ZM420.85 286.2l-6.15-6.15 6.15-6.15 6.15 6.15-6.15 6.15ZM402.4 286.2l-6.15-6.15 6.15-6.15 6.15 6.15-6.15 6.15ZM420.85 267.75l-6.15-6.15 6.15-6.15 6.15 6.15-6.15 6.15ZM402.4 267.75l-6.15-6.15 6.15-6.15 6.15 6.15-6.15 6.15ZM420.85 249.3l-6.15-6.15 6.15-6.15 6.15 6.15-6.15 6.15ZM402.4 249.3l-6.15-6.15 6.15-6.15 6.15 6.15-6.15 6.15ZM402.4 360l-6.15-6.15 6.15-6.15 6.15 6.15-6.15 6.15ZM383.95 360l-6.15-6.15 6.15-6.15 6.15 6.15-6.15 6.15ZM383.95 341.55l-6.15-6.15 6.15-6.15 6.15 6.15-6.15 6.15ZM365.5 360l-6.15-6.15 6.15-6.15 6.15 6.15-6.15 6.15ZM365.5 341.55l-6.15-6.15 6.15-6.15 6.15 6.15-6.15 6.15ZM347.05 360l-6.15-6.15 6.15-6.15 6.15 6.15-6.15 6.15ZM347.05 341.55l-6.15-6.15 6.15-6.15 6.15 6.15-6.15 6.15ZM328.6 360l-6.15-6.15 6.15-6.15 6.15 6.15-6.15 6.15ZM328.6 341.55l-6.15-6.15 6.15-6.15 6.15 6.15-6.15 6.15ZM310.15 360l-6.15-6.15 6.15-6.15 6.15 6.15-6.15 6.15ZM310.15 341.55 304 335.4l6.15-6.15 6.15 6.15-6.15 6.15Z"/></g><g opacity=".2" fill="#FB980D"><path d="m6.15 25 6.15 6.15-6.15 6.15L0 31.15 6.15 25ZM6.15 43.45l6.15 6.15-6.15 6.15L0 49.6l6.15-6.15ZM24.6 43.45l6.15 6.15-6.15 6.15-6.15-6.15 6.15-6.15ZM6.15 61.9l6.15 6.15-6.15 6.15L0 68.05l6.15-6.15ZM24.6 61.9l6.15 6.15-6.15 6.15-6.15-6.15 6.15-6.15ZM6.15 80.35l6.15 6.15-6.15 6.15L0 86.5l6.15-6.15ZM24.6 80.35l6.15 6.15-6.15 6.15-6.15-6.15 6.15-6.15ZM6.15 98.8l6.15 6.15-6.15 6.15L0 104.95l6.15-6.15ZM24.6 98.8l6.15 6.15-6.15 6.15-6.15-6.15 6.15-6.15ZM6.15 117.25l6.15 6.15-6.15 6.15L0 123.4l6.15-6.15ZM24.6 117.25l6.15 6.15-6.15 6.15-6.15-6.15 6.15-6.15ZM6.15 135.7l6.15 6.15L6.15 148 0 141.85l6.15-6.15ZM24.6 135.7l6.15 6.15L24.6 148l-6.15-6.15 6.15-6.15ZM24.6 25l6.15 6.15-6.15 6.15-6.15-6.15L24.6 25ZM43.05 25l6.15 6.15-6.15 6.15-6.15-6.15L43.05 25ZM43.05 43.45l6.15 6.15-6.15 6.15-6.15-6.15 6.15-6.15ZM61.5 25l6.15 6.15-6.15 6.15-6.15-6.15L61.5 25ZM61.5 43.45l6.15 6.15-6.15 6.15-6.15-6.15 6.15-6.15ZM79.95 25l6.15 6.15-6.15 6.15-6.15-6.15L79.95 25ZM79.95 43.45l6.15 6.15-6.15 6.15-6.15-6.15 6.15-6.15ZM98.4 25l6.15 6.15-6.15 6.15-6.15-6.15L98.4 25ZM98.4 43.45l6.15 6.15-6.15 6.15-6.15-6.15 6.15-6.15ZM116.85 25l6.15 6.15-6.15 6.15-6.15-6.15 6.15-6.15ZM116.85 43.45 123 49.6l-6.15 6.15-6.15-6.15 6.15-6.15Z"/></g></svg>