<svg width="123" height="123" fill="none" xmlns="http://www.w3.org/2000/svg"><g opacity=".2" fill="#FB980D"><path d="m116.85 123-6.15-6.15 6.15-6.15 6.15 6.15-6.15 6.15ZM116.85 104.55l-6.15-6.15 6.15-6.15L123 98.4l-6.15 6.15ZM98.4 104.55l-6.15-6.15 6.15-6.15 6.149 6.15-6.15 6.15ZM116.85 86.1l-6.15-6.15 6.15-6.15 6.15 6.15-6.15 6.15ZM98.4 86.1l-6.15-6.15 6.15-6.15 6.149 6.15-6.15 6.15ZM116.85 67.65l-6.15-6.15 6.15-6.15L123 61.5l-6.15 6.15ZM98.4 67.65l-6.15-6.15 6.15-6.15 6.149 6.15-6.15 6.15ZM116.85 49.2l-6.15-6.15 6.15-6.15 6.15 6.15-6.15 6.15ZM98.4 49.2l-6.15-6.15 6.15-6.15 6.149 6.15-6.15 6.15ZM116.85 30.75l-6.15-6.15 6.15-6.15L123 24.6l-6.15 6.15ZM98.4 30.75l-6.15-6.15 6.15-6.15 6.149 6.15-6.15 6.15ZM116.85 12.3l-6.15-6.15L116.85 0 123 6.15l-6.15 6.15ZM98.4 12.3l-6.15-6.15L98.4 0l6.149 6.15-6.15 6.15ZM98.4 123l-6.15-6.15 6.15-6.15 6.149 6.15-6.15 6.15ZM79.95 123l-6.15-6.15 6.15-6.15 6.15 6.15-6.15 6.15ZM79.95 104.55 73.8 98.4l6.15-6.15 6.15 6.15-6.15 6.15ZM61.5 123l-6.15-6.15 6.15-6.15 6.15 6.15L61.5 123ZM61.5 104.55l-6.15-6.15 6.15-6.15 6.15 6.15-6.15 6.15ZM43.05 123l-6.15-6.15 6.15-6.15 6.15 6.15-6.15 6.15ZM43.05 104.55 36.9 98.4l6.15-6.15 6.15 6.15-6.15 6.15ZM24.6 123l-6.15-6.15 6.15-6.15 6.15 6.15L24.6 123ZM24.6 104.55l-6.15-6.15 6.15-6.15 6.15 6.15-6.15 6.15ZM6.15 123 0 116.85l6.15-6.15 6.15 6.15L6.15 123ZM6.15 104.55 0 98.4l6.15-6.15 6.15 6.15-6.15 6.15Z"/></g></svg>