<svg width="123" height="123" fill="none" xmlns="http://www.w3.org/2000/svg"><g opacity=".2" fill="#FB980D"><path d="m6.15 0 6.15 6.15-6.15 6.15L0 6.15 6.15 0ZM6.15 18.45l6.15 6.15-6.15 6.15L0 24.6l6.15-6.15ZM24.6 18.45l6.15 6.15-6.15 6.15-6.15-6.15 6.15-6.15ZM6.15 36.9l6.15 6.15-6.15 6.15L0 43.05l6.15-6.15ZM24.6 36.9l6.15 6.15-6.15 6.15-6.15-6.15 6.15-6.15ZM6.15 55.35l6.15 6.15-6.15 6.15L0 61.5l6.15-6.15ZM24.6 55.35l6.15 6.15-6.15 6.15-6.15-6.15 6.15-6.15ZM6.15 73.8l6.15 6.15-6.15 6.15L0 79.95l6.15-6.15ZM24.6 73.8l6.15 6.15-6.15 6.15-6.15-6.15 6.15-6.15ZM6.15 92.25l6.15 6.15-6.15 6.15L0 98.4l6.15-6.15ZM24.6 92.25l6.15 6.15-6.15 6.15-6.15-6.15 6.15-6.15ZM6.15 110.7l6.15 6.15L6.15 123 0 116.85l6.15-6.15ZM24.6 110.7l6.15 6.15L24.6 123l-6.15-6.15 6.15-6.15ZM24.6 0l6.15 6.15-6.15 6.15-6.15-6.15L24.6 0ZM43.05 0l6.15 6.15-6.15 6.15-6.15-6.15L43.05 0ZM43.05 18.45l6.15 6.15-6.15 6.15-6.15-6.15 6.15-6.15ZM61.5 0l6.15 6.15-6.15 6.15-6.15-6.15L61.5 0ZM61.5 18.45l6.15 6.15-6.15 6.15-6.15-6.15 6.15-6.15ZM79.95 0l6.15 6.15-6.15 6.15-6.15-6.15L79.95 0ZM79.95 18.45l6.15 6.15-6.15 6.15-6.15-6.15 6.15-6.15ZM98.4 0l6.15 6.15-6.15 6.15-6.15-6.15L98.4 0ZM98.4 18.45l6.15 6.15-6.15 6.15-6.15-6.15 6.15-6.15ZM116.85 0 123 6.15l-6.15 6.15-6.15-6.15L116.85 0ZM116.85 18.45 123 24.6l-6.15 6.15-6.15-6.15 6.15-6.15Z"/></g></svg>